<svg width="14" height="12" viewBox="0 0 14 12" fill="none" xmlns="http://www.w3.org/2000/svg">
<path d="M4.66667 5.33333C5.19408 5.33333 5.70966 5.17694 6.14819 4.88392C6.58672 4.5909 6.92851 4.17443 7.13034 3.68716C7.33218 3.19989 7.38499 2.66371 7.28209 2.14643C7.1792 1.62914 6.92522 1.15399 6.55228 0.781049C6.17934 0.408109 5.70419 0.154134 5.18691 0.0512404C4.66962 -0.0516535 4.13345 0.00115541 3.64618 0.202989C3.15891 0.404823 2.74243 0.746616 2.44941 1.18515C2.1564 1.62368 2 2.13925 2 2.66667C2 3.37391 2.28095 4.05219 2.78105 4.55229C3.28115 5.05238 3.95942 5.33333 4.66667 5.33333ZM4.66667 1.33333C4.93037 1.33333 5.18816 1.41153 5.40743 1.55804C5.62669 1.70455 5.79759 1.91279 5.89851 2.15642C5.99942 2.40006 6.02583 2.66815 5.97438 2.92679C5.92293 3.18543 5.79594 3.42301 5.60947 3.60948C5.423 3.79595 5.18543 3.92293 4.92679 3.97438C4.66815 4.02583 4.40006 3.99942 4.15642 3.89851C3.91279 3.79759 3.70455 3.62669 3.55804 3.40743C3.41153 3.18816 3.33333 2.93038 3.33333 2.66667C3.33333 2.31305 3.47381 1.97391 3.72386 1.72386C3.97391 1.47381 4.31304 1.33333 4.66667 1.33333ZM10 6.66667C10.3956 6.66667 10.7822 6.54937 11.1111 6.32961C11.44 6.10984 11.6964 5.79749 11.8478 5.43203C11.9991 5.06658 12.0387 4.66445 11.9616 4.27649C11.8844 3.88852 11.6939 3.53216 11.4142 3.25245C11.1345 2.97275 10.7781 2.78227 10.3902 2.7051C10.0022 2.62793 9.60008 2.66753 9.23463 2.81891C8.86918 2.97028 8.55682 3.22663 8.33706 3.55553C8.1173 3.88443 8 4.2711 8 4.66667C8 5.1971 8.21071 5.70581 8.58579 6.08088C8.96086 6.45595 9.46957 6.66667 10 6.66667ZM10 4C10.1319 4 10.2607 4.0391 10.3704 4.11235C10.48 4.18561 10.5655 4.28973 10.6159 4.41155C10.6664 4.53336 10.6796 4.66741 10.6539 4.79673C10.6281 4.92605 10.5646 5.04484 10.4714 5.13807C10.3782 5.23131 10.2594 5.2948 10.1301 5.32052C10.0007 5.34625 9.86669 5.33305 9.74488 5.28259C9.62306 5.23213 9.51894 5.14668 9.44569 5.03705C9.37243 4.92742 9.33333 4.79852 9.33333 4.66667C9.33333 4.48986 9.40357 4.32029 9.52859 4.19526C9.65362 4.07024 9.82319 4 10 4ZM10 7.33333C9.26122 7.33415 8.54364 7.58038 7.96 8.03333C7.30701 7.3829 6.47604 6.9404 5.57188 6.76162C4.66773 6.58284 3.73088 6.67579 2.87948 7.02876C2.02809 7.38172 1.30028 7.97889 0.787827 8.74496C0.27538 9.51102 0.0012468 10.4117 0 11.3333C0 11.5101 0.0702379 11.6797 0.195262 11.8047C0.320286 11.9298 0.489856 12 0.666667 12C0.843478 12 1.01305 11.9298 1.13807 11.8047C1.2631 11.6797 1.33333 11.5101 1.33333 11.3333C1.33333 10.4493 1.68452 9.60143 2.30964 8.97631C2.93476 8.35119 3.78261 8 4.66667 8C5.55072 8 6.39857 8.35119 7.02369 8.97631C7.64881 9.60143 8 10.4493 8 11.3333C8 11.5101 8.07024 11.6797 8.19526 11.8047C8.32029 11.9298 8.48985 12 8.66667 12C8.84348 12 9.01305 11.9298 9.13807 11.8047C9.26309 11.6797 9.33333 11.5101 9.33333 11.3333C9.33492 10.5523 9.13761 9.7837 8.76 9.1C9.05462 8.86719 9.40882 8.72202 9.78208 8.68111C10.1553 8.6402 10.5326 8.70519 10.8706 8.86865C11.2087 9.03211 11.4939 9.28744 11.6936 9.60541C11.8933 9.92339 11.9995 10.2912 12 10.6667C12 10.8435 12.0702 11.013 12.1953 11.1381C12.3203 11.2631 12.4899 11.3333 12.6667 11.3333C12.8435 11.3333 13.013 11.2631 13.1381 11.1381C13.2631 11.013 13.3333 10.8435 13.3333 10.6667C13.3333 9.78261 12.9821 8.93477 12.357 8.30964C11.7319 7.68452 10.8841 7.33333 10 7.33333Z" fill="#687884"/>
</svg>
