<svg width="16" height="14" viewBox="0 0 16 14" fill="none" xmlns="http://www.w3.org/2000/svg">
<path d="M11.8989 0C11.6571 0.00895497 11.4181 0.0539967 11.1896 0.133632C10.2708 0.443193 9.48244 1.1512 8.69965 1.9346L3.64246 6.99179C3.19314 7.44111 2.8468 7.98913 2.74198 8.6389C2.68833 8.99296 2.71942 9.35469 2.83269 9.6944C2.94596 10.0341 3.13819 10.3421 3.39359 10.5931C3.65037 10.8509 3.96554 11.0429 4.31235 11.1529C4.65916 11.263 5.02739 11.2877 5.38581 11.2251C6.03436 11.1086 6.57747 10.7611 6.99492 10.3436L12.5499 4.7887C12.6169 4.73474 12.6718 4.66727 12.7111 4.59068C12.7504 4.51409 12.773 4.43009 12.7777 4.34415C12.7823 4.25821 12.7688 4.17226 12.738 4.09188C12.7072 4.01151 12.6599 3.93852 12.599 3.87766C12.5382 3.81681 12.4652 3.76945 12.3848 3.73867C12.3044 3.70789 12.2185 3.69438 12.1325 3.69901C12.0466 3.70365 11.9626 3.72633 11.886 3.76559C11.8094 3.80484 11.7419 3.85978 11.688 3.92683L6.13244 9.48177C5.86885 9.74535 5.50473 9.95929 5.17494 10.0181C4.84515 10.077 4.5644 10.0396 4.25546 9.73125C3.93363 9.40943 3.89931 9.1391 3.94896 8.83016C3.99861 8.52182 4.19232 8.16567 4.50433 7.85366L9.56152 2.79647C10.3032 2.05536 11.0125 1.4908 11.5727 1.302C12.1336 1.11381 12.5358 1.15426 13.1819 1.80036C13.6649 2.28278 14.1786 2.71801 14.3122 3.16059C14.3796 3.38127 14.3796 3.60194 14.2356 3.96484C14.0921 4.32773 13.7789 4.82425 13.1825 5.42069C10.6398 7.96461 8.688 9.91515 7.62691 10.9762C6.68474 11.9184 5.79468 12.5473 5.00269 12.719C4.21009 12.8912 3.45795 12.7079 2.4741 11.7229C1.48902 10.7378 1.14452 9.78397 1.24811 8.79276C1.3511 7.80094 1.9549 6.72514 3.06809 5.61256C4.41422 4.26643 7.22418 1.68573 7.22418 1.68573C7.29234 1.63434 7.34902 1.56928 7.39058 1.49472C7.43215 1.42015 7.45768 1.33773 7.46554 1.25273C7.47341 1.16773 7.46343 1.08202 7.43625 1.0011C7.40908 0.920173 7.3653 0.845818 7.30772 0.782795C7.25014 0.719772 7.18003 0.669469 7.10189 0.63511C7.02374 0.600751 6.93928 0.583092 6.85392 0.583264C6.76855 0.583437 6.68417 0.601438 6.60616 0.636113C6.52815 0.670789 6.45825 0.721374 6.40093 0.78463C6.40093 0.78463 3.58607 3.33284 2.18661 4.73169C0.946523 5.97116 0.16557 7.3038 0.02213 8.67813C-0.12131 10.0512 0.435287 11.409 1.61223 12.586C2.78918 13.7629 4.0593 14.1859 5.25157 13.9266C6.44384 13.6679 7.47673 12.8508 8.48878 11.8387C9.54987 10.7782 11.5016 8.82709 14.0443 6.28317C14.7186 5.60888 15.1551 5.00631 15.3849 4.42581C15.6148 3.84408 15.624 3.27093 15.4812 2.79708C15.1949 1.85001 14.4268 1.321 14.0443 0.939104C13.6054 0.500202 13.1199 0.223129 12.6265 0.0962398C12.3896 0.0307089 12.1447 -0.00147651 11.8989 0.000612948V0Z" fill="#009DF6"/>
</svg>
