<svg width="11" height="8" viewBox="0 0 11 8" fill="none" xmlns="http://www.w3.org/2000/svg">
<path d="M4.79519 6.75516L0.307538 1.62562C-0.222072 1.02209 0.208353 0.0742191 1.01212 0.0742191L9.98742 0.0742191C10.1673 0.0740649 10.3434 0.125765 10.4947 0.223128C10.6459 0.320491 10.7659 0.45939 10.8403 0.623191C10.9146 0.786992 10.9402 0.968752 10.9139 1.1467C10.8876 1.32466 10.8106 1.49126 10.692 1.62656L6.20436 6.75423C6.11653 6.85473 6.00822 6.93528 5.8867 6.99047C5.76517 7.04566 5.63324 7.07422 5.49977 7.07422C5.3663 7.07422 5.23437 7.04566 5.11285 6.99047C4.99132 6.93528 4.88301 6.85473 4.79519 6.75423V6.75516Z" fill="white"/>
</svg>
