<svg width="11" height="8" viewBox="0 0 11 8" fill="none" xmlns="http://www.w3.org/2000/svg">
<path d="M4.79519 7.30594L0.307538 2.1764C-0.222072 1.57287 0.208353 0.625 1.01212 0.625L9.98742 0.625C10.1673 0.624846 10.3434 0.676546 10.4947 0.773909C10.6459 0.871272 10.7659 1.01017 10.8403 1.17397C10.9146 1.33777 10.9402 1.51953 10.9139 1.69749C10.8876 1.87544 10.8105 2.04204 10.692 2.17734L6.20436 7.30501C6.11653 7.40551 6.00822 7.48606 5.8867 7.54125C5.76517 7.59645 5.63324 7.625 5.49977 7.625C5.3663 7.625 5.23437 7.59645 5.11285 7.54125C4.99132 7.48606 4.88301 7.40551 4.79519 7.30501V7.30594Z" fill="#C4C4C4"/>
</svg>
