<svg width="12" height="18" viewBox="0 0 12 18" fill="none" xmlns="http://www.w3.org/2000/svg">
<path fill-rule="evenodd" clip-rule="evenodd" d="M0.620477 1.06337C0.488531 1.13303 0.37793 1.31742 0.37793 1.46771C0.37793 1.61763 0.481999 1.7882 0.621164 1.86643C0.735547 1.93071 0.786175 1.93649 1.23421 1.93649H1.72255L1.61298 2.15407C1.55273 2.27373 1.46591 2.49522 1.42009 2.64629C1.30565 3.02341 1.29777 3.65376 1.40231 4.07076C1.60251 4.86931 2.11358 5.71818 2.99607 6.71806C3.33997 7.10768 4.43198 8.20244 5.01245 8.73954L5.3186 9.02278L5.21559 9.10875C5.15896 9.156 4.81719 9.47262 4.45611 9.81226C3.4045 10.8015 2.59217 11.7147 2.12104 12.4372C1.27121 13.7405 1.10288 14.8195 1.5927 15.8237L1.70914 16.0624H1.2298C0.811083 16.0624 0.734859 16.0704 0.627134 16.1253C0.488468 16.1961 0.37793 16.3761 0.37793 16.5312C0.37793 16.6863 0.488468 16.8663 0.627134 16.9371C0.749298 16.9994 0.800426 17 6.0033 17C11.2062 17 11.2573 16.9994 11.3795 16.9371C11.5181 16.8663 11.6287 16.6863 11.6287 16.5312C11.6287 16.3761 11.5181 16.1961 11.3795 16.1253C11.2717 16.0704 11.1955 16.0624 10.777 16.0624H10.2979L10.416 15.8188C11.0377 14.5367 10.5976 13.1247 9.0065 11.2965C8.63979 10.8751 7.68326 9.9168 7.08947 9.37583L6.69647 9.01781L6.98274 8.75257C7.55237 8.22475 8.67335 7.10009 9.01053 6.71806C9.893 5.71824 10.4041 4.86931 10.6043 4.07076C10.7088 3.65376 10.701 3.02341 10.5865 2.64629C10.5407 2.49522 10.4539 2.27373 10.3936 2.15407L10.2841 1.93649H10.7701C11.1956 1.93649 11.2715 1.92865 11.3795 1.87358C11.5181 1.80283 11.6287 1.62279 11.6287 1.46771C11.6287 1.31264 11.5181 1.1326 11.3795 1.06184C11.2573 0.999526 11.2076 0.998932 5.99674 1.00031C0.822053 1.00168 0.735453 1.00268 0.620477 1.06337ZM9.24958 2.11301C9.41912 2.30321 9.58601 2.59904 9.67892 2.87406C9.76327 3.1237 9.75814 3.62445 9.66804 3.93956C9.56563 4.29756 9.39565 4.65045 9.30989 4.68308C9.20501 4.72293 8.63507 4.78043 8.34474 4.78043C7.75973 4.78043 7.01965 4.64561 6.42542 4.43075C5.41523 4.06551 4.91979 3.94053 4.20631 3.87097C3.76756 3.82818 3.15318 3.84896 2.69274 3.92216C2.31656 3.98197 2.33612 3.99385 2.28196 3.67264C2.19133 3.13548 2.37122 2.54588 2.75815 2.11176L2.91435 1.93649H6.0033H9.09225L9.24958 2.11301ZM4.55008 4.85759C4.96626 4.93132 5.34276 5.03704 5.82538 5.21571C6.68235 5.53298 7.34761 5.67443 8.15935 5.71199L8.62688 5.73362L8.35683 6.04614C8.05112 6.39991 6.99934 7.4577 6.40176 8.01233L6.0033 8.38214L5.60484 8.01233C5.03152 7.48027 3.92973 6.37476 3.64524 6.04614C3.23287 5.56977 2.74815 4.89994 2.7874 4.86069C2.87147 4.77665 4.08102 4.77453 4.55008 4.85759ZM5.60549 11.1165C5.66909 11.2329 5.86282 11.3434 6.0033 11.3434C6.14378 11.3434 6.33751 11.2329 6.40111 11.1165C6.44442 11.0372 6.45986 10.9147 6.47208 10.5527L6.48771 10.0901L7.15119 10.7344C8.64948 12.1894 9.41912 13.2134 9.66426 14.0779C9.80252 14.5655 9.74496 15.1446 9.52135 15.5151L9.45056 15.6323L9.33511 15.4259C9.13188 15.0625 8.63541 14.5013 8.23782 14.1856C7.80798 13.8443 7.20135 13.509 6.74554 13.3607L6.47208 13.2718V12.9626C6.47208 12.7145 6.45967 12.6291 6.40917 12.5301C6.33842 12.3915 6.15837 12.2809 6.0033 12.2809C5.84823 12.2809 5.66819 12.3915 5.59743 12.5301C5.54693 12.6291 5.53452 12.7145 5.53452 12.9626V13.2718L5.26106 13.3607C4.91282 13.474 4.43889 13.7146 4.08033 13.9602C3.48517 14.3678 2.87706 15.0089 2.63733 15.4815L2.55948 15.6349L2.49682 15.5359C2.29428 15.216 2.20996 14.6859 2.29571 14.2714C2.48232 13.3693 3.12205 12.4663 4.65687 10.9384L5.51889 10.0803L5.53452 10.5478C5.54677 10.9145 5.56208 11.037 5.60549 11.1165ZM6.2957 14.2051C6.56778 14.2746 7.07665 14.5238 7.41649 14.7541C7.78883 15.0064 8.31986 15.5377 8.49068 15.8289L8.61854 16.0468L7.31092 16.055C6.59175 16.0594 5.41264 16.0594 4.69071 16.055L3.37813 16.0468L3.53745 15.7968C3.94229 15.1615 4.88679 14.4538 5.62828 14.2301C5.9097 14.1452 6.04183 14.1403 6.2957 14.2051Z" fill="#687884" stroke="#687884" stroke-width="0.4"/>
</svg>
