<svg width="14" height="14" viewBox="0 0 14 14" fill="none" xmlns="http://www.w3.org/2000/svg">
<path d="M0.874999 14C0.642935 14 0.437499 14 0.437499 14L0 14V0.87502C0 0.642956 0.0921873 0.420396 0.256281 0.256302C0.420375 0.0922083 0.642935 2.1196e-05 0.874999 2.1196e-05H6.45749C6.62056 -0.00111367 6.7807 0.0433439 6.91985 0.128378C7.05899 0.213413 7.17161 0.33564 7.24499 0.481271L7.87499 1.75002H12.25C12.482 1.75002 12.7046 1.84221 12.8687 2.0063C13.0328 2.17039 13.125 2.39295 13.125 2.62502V9.62501C13.125 9.85707 13.0328 10.0796 12.8687 10.2437C12.7046 10.4078 12.482 10.5 12.25 10.5H7.53374C7.37215 10.4995 7.21386 10.4543 7.07641 10.3693C6.93895 10.2844 6.8277 10.1631 6.75499 10.0188L6.12499 8.75001H1.75V14L1.3125 14C0.874999 14 1.10706 14 0.874999 14ZM1.75 1.75002V7.00001H6.99999L7.87499 8.75001H11.375V3.50002H6.99999L6.12499 1.75002H1.75Z" fill="#687884"/>
</svg>
