<svg width="20" height="23" viewBox="0 0 20 23" fill="none" xmlns="http://www.w3.org/2000/svg">
<path fill-rule="evenodd" clip-rule="evenodd" d="M3.63067 0.0540904C3.47358 0.116554 3.24826 0.329865 3.15904 0.500632C3.1134 0.587934 3.08965 0.794408 3.08965 1.10314V1.57284H1.90726C0.830772 1.57284 0.708008 1.58145 0.536307 1.66905C0.295354 1.79196 0.105897 2.01757 0.0408762 2.25901C0.00634904 2.38733 -0.00604537 4.79636 0.00270938 9.69583L0.0156448 16.9428L0.138064 17.1567C0.213512 17.2885 0.345719 17.4206 0.482352 17.501L0.704221 17.6314L3.05276 17.6455L5.40129 17.6597V16.8463V16.0329H3.40934H1.41739V10.844V5.65512H8.74581H16.0742V3.98129C16.0742 2.66689 16.0597 2.27347 16.0063 2.14918C15.9236 1.95628 15.6563 1.69585 15.4685 1.62503C15.3853 1.59365 14.8705 1.57284 14.1774 1.57284H13.0248L13.0245 1.21626C13.0238 0.29037 12.7371 0.00205378 11.8152 3.7238e-05C11.3893 -0.000897258 11.2882 0.015186 11.1027 0.113259C10.7798 0.284026 10.6933 0.469892 10.664 1.05641L10.6394 1.54825L8.04493 1.56099L5.45048 1.57373L5.44831 1.16752C5.44354 0.270943 5.163 -0.000651352 4.24547 0.00313582C3.97496 0.00426705 3.6983 0.0271868 3.63067 0.0540904ZM16.0737 6.89701C15.6493 7.18592 15.6038 7.40597 15.7857 8.29143C15.8629 8.66739 15.9262 8.97735 15.9264 8.98015C15.9265 8.98296 15.6777 8.90077 15.3734 8.79748C14.6412 8.54896 14.087 8.45861 13.2953 8.45861C11.5143 8.45861 10.0209 9.09313 8.77153 10.3806C7.7002 11.4847 7.10832 12.8124 6.99722 14.3607C6.91533 15.5015 7.30329 17.1808 7.75249 17.6299C8.28303 18.1605 9.18099 17.8379 9.26863 17.0852C9.29136 16.8901 9.26883 16.7745 9.14995 16.4756C8.90634 15.8631 8.82062 15.3954 8.82534 14.705C8.83031 13.9832 8.94112 13.4838 9.23652 12.8521C9.47147 12.3496 9.65729 12.0782 10.056 11.6555C10.5547 11.1268 11.2267 10.6986 11.8936 10.4845C12.453 10.305 12.7889 10.2644 13.504 10.29C14.091 10.3111 14.2439 10.3349 14.6584 10.4702C14.9211 10.556 15.1473 10.6442 15.1609 10.6664C15.1746 10.6885 14.9663 10.8777 14.698 11.0868C14.2991 11.3978 14.1951 11.5065 14.1274 11.6838C13.9132 12.2448 14.2955 12.7873 14.9045 12.7866C15.1773 12.7862 15.2422 12.7438 16.572 11.6963C17.7185 10.7932 17.8448 10.6565 17.8448 10.3191C17.8448 10.0191 17.2497 7.30721 17.1475 7.14141C16.9395 6.80401 16.3931 6.67967 16.0737 6.89701ZM18.017 11.7131C17.633 11.8559 17.4022 12.1716 17.4022 12.5541C17.4022 12.6717 17.4668 12.9451 17.5458 13.1616C17.7544 13.733 17.8448 14.2371 17.8448 14.8279C17.8448 16.0664 17.4007 17.1275 16.517 18.0003C15.3022 19.2001 13.5912 19.6033 11.9551 19.0752C11.786 19.0206 11.6486 18.9612 11.6497 18.9431C11.6508 18.925 11.8638 18.7464 12.123 18.5463C12.6783 18.1174 12.8118 17.8996 12.7544 17.5163C12.7104 17.223 12.4022 16.8951 12.1209 16.8424C11.8074 16.7835 11.5916 16.8903 10.8461 17.4732C10.458 17.7766 9.9278 18.1909 9.66791 18.3938C9.1502 18.798 8.99173 19.0151 8.99173 19.3203C8.99173 19.5469 9.55336 22.2816 9.62891 22.4227C9.65596 22.4732 9.74601 22.5718 9.82899 22.6416C10.2293 22.9785 10.7961 22.8814 11.0482 22.4329C11.1856 22.1884 11.1835 22.0351 11.0326 21.2945C10.9648 20.9617 10.9168 20.6821 10.9259 20.673C10.935 20.6639 11.1067 20.7124 11.3074 20.7807C12.2392 21.0981 13.4451 21.2062 14.3699 21.0553C17.0131 20.624 19.1317 18.5179 19.5893 15.8667C19.6863 15.3045 19.6855 14.3104 19.5875 13.7459C19.4862 13.1614 19.1949 12.291 19.0197 12.0492C18.9427 11.9428 18.8132 11.8215 18.732 11.7795C18.5337 11.677 18.1979 11.6458 18.017 11.7131Z" fill="#687884"/>
</svg>
