<svg width="16" height="16" viewBox="0 0 16 16" fill="none" xmlns="http://www.w3.org/2000/svg">
<path d="M8.51597 15C7.94341 15.0024 7.39327 14.7776 6.98614 14.3751L1.62564 9.01456C1.40999 8.79467 1.24321 8.53172 1.13622 8.24291C1.02923 7.9541 0.984435 7.64596 1.00478 7.33864L1.23608 3.60536C1.2795 2.99119 1.54312 2.41332 1.97849 1.97795C2.41386 1.54258 2.99173 1.27896 3.6059 1.23554L7.33918 1.00424C7.64637 0.985174 7.95416 1.03056 8.24278 1.13748C8.5314 1.2444 8.79447 1.4105 9.0151 1.6251L14.3756 6.9856C14.7964 7.44216 15.0194 8.04672 14.9958 8.66718C14.9723 9.28765 14.704 9.87355 14.2498 10.2969L10.2852 14.2493C10.0544 14.4849 9.77928 14.6726 9.47563 14.8015C9.17198 14.9303 8.84582 14.9978 8.51597 15ZM7.48526 2.01466H7.39193L3.65459 2.2419C3.28809 2.27233 2.94425 2.43174 2.6842 2.69178C2.42416 2.95183 2.26475 3.29567 2.23432 3.66217L2.01925 7.39139C2.00471 7.55735 2.02618 7.72448 2.08221 7.88137C2.13824 8.03825 2.2275 8.18118 2.34389 8.30037L7.69222 13.6568C7.80948 13.7702 7.94903 13.858 8.10201 13.9146C8.255 13.9711 8.41808 13.9953 8.5809 13.9855C8.95487 13.9627 9.30672 13.8005 9.56697 13.531L13.5356 9.56644C13.7979 9.33245 13.9576 9.00472 13.9804 8.65399C14.0032 8.30325 13.8871 7.95762 13.6573 7.69168L8.30902 2.34335C8.20063 2.23632 8.07189 2.15209 7.93041 2.09563C7.78892 2.03918 7.63756 2.01165 7.48526 2.01466Z" fill="#687884"/>
<path d="M5.55775 7.28183C5.10036 7.28183 4.6617 7.10013 4.33827 6.7767C4.01484 6.45328 3.83314 6.01461 3.83314 5.55722C3.83317 5.2159 3.93448 4.88227 4.12424 4.59856C4.314 4.31486 4.58367 4.09384 4.89912 3.96349C5.21457 3.83314 5.5616 3.79932 5.89628 3.86632C6.23095 3.93331 6.53822 4.09811 6.77919 4.33984C7.01953 4.58102 7.18311 4.88794 7.2493 5.22192C7.3155 5.55591 7.28135 5.90202 7.15117 6.21663C7.02098 6.53124 6.80059 6.80028 6.51775 6.98984C6.23491 7.1794 5.90229 7.281 5.56181 7.28183H5.55775ZM5.55775 4.84708C5.41616 4.84584 5.27742 4.88696 5.15937 4.96516C5.04132 5.04336 4.94934 5.15506 4.89525 5.28593C4.84116 5.41679 4.82743 5.56084 4.85582 5.69956C4.88421 5.83829 4.95342 5.96536 5.05457 6.06446C5.19033 6.19348 5.37046 6.26542 5.55775 6.26542C5.74504 6.26542 5.92518 6.19348 6.06094 6.06446C6.19376 5.93067 6.26829 5.7498 6.26829 5.56128C6.26829 5.37275 6.19376 5.19188 6.06094 5.05809C5.99525 4.9913 5.91694 4.93825 5.83055 4.90202C5.74416 4.86579 5.65143 4.84712 5.55775 4.84708Z" fill="#687884"/>
<path d="M8.51597 15C7.94341 15.0024 7.39327 14.7776 6.98614 14.3751L1.62564 9.01456C1.40999 8.79467 1.24321 8.53172 1.13622 8.24291C1.02923 7.9541 0.984435 7.64596 1.00478 7.33864L1.23608 3.60536C1.2795 2.99119 1.54312 2.41332 1.97849 1.97795C2.41386 1.54258 2.99173 1.27896 3.6059 1.23554L7.33918 1.00424C7.64637 0.985174 7.95416 1.03056 8.24278 1.13748C8.5314 1.2444 8.79447 1.4105 9.0151 1.6251L14.3756 6.9856C14.7964 7.44216 15.0194 8.04672 14.9958 8.66718C14.9723 9.28765 14.704 9.87355 14.2498 10.2969L10.2852 14.2493C10.0544 14.4849 9.77928 14.6726 9.47563 14.8015C9.17198 14.9303 8.84582 14.9978 8.51597 15ZM7.48526 2.01466H7.39193L3.65459 2.2419C3.28809 2.27233 2.94425 2.43174 2.6842 2.69178C2.42416 2.95183 2.26475 3.29567 2.23432 3.66217L2.01925 7.39139C2.00471 7.55735 2.02618 7.72448 2.08221 7.88137C2.13824 8.03825 2.2275 8.18118 2.34389 8.30037L7.69222 13.6568C7.80948 13.7702 7.94903 13.858 8.10201 13.9146C8.255 13.9711 8.41808 13.9953 8.5809 13.9855C8.95487 13.9627 9.30672 13.8005 9.56697 13.531L13.5356 9.56644C13.7979 9.33245 13.9576 9.00472 13.9804 8.65399C14.0032 8.30325 13.8871 7.95762 13.6573 7.69168L8.30902 2.34335C8.20063 2.23632 8.07189 2.15209 7.93041 2.09563C7.78892 2.03918 7.63756 2.01165 7.48526 2.01466Z" stroke="#687884" stroke-width="0.4"/>
<path d="M5.55775 7.28183C5.10036 7.28183 4.6617 7.10013 4.33827 6.7767C4.01484 6.45328 3.83314 6.01461 3.83314 5.55722C3.83317 5.2159 3.93448 4.88227 4.12424 4.59856C4.314 4.31486 4.58367 4.09384 4.89912 3.96349C5.21457 3.83314 5.5616 3.79932 5.89628 3.86632C6.23095 3.93331 6.53822 4.09811 6.77919 4.33984C7.01953 4.58102 7.18311 4.88794 7.2493 5.22192C7.3155 5.55591 7.28135 5.90202 7.15117 6.21663C7.02098 6.53124 6.80059 6.80028 6.51775 6.98984C6.23491 7.1794 5.90229 7.281 5.56181 7.28183H5.55775ZM5.55775 4.84708C5.41616 4.84584 5.27742 4.88696 5.15937 4.96516C5.04132 5.04336 4.94934 5.15506 4.89525 5.28593C4.84116 5.41679 4.82743 5.56084 4.85582 5.69956C4.88421 5.83829 4.95342 5.96536 5.05457 6.06446C5.19033 6.19348 5.37046 6.26542 5.55775 6.26542C5.74504 6.26542 5.92518 6.19348 6.06094 6.06446C6.19376 5.93067 6.26829 5.7498 6.26829 5.56128C6.26829 5.37275 6.19376 5.19188 6.06094 5.05809C5.99525 4.9913 5.91694 4.93825 5.83055 4.90202C5.74416 4.86579 5.65143 4.84712 5.55775 4.84708Z" stroke="#687884" stroke-width="0.4"/>
</svg>
