<svg width="22" height="15" viewBox="0 0 22 15" fill="none" xmlns="http://www.w3.org/2000/svg">
<path d="M11 14.1236C9.66139 14.1236 8.27903 13.7912 6.88793 13.1394C5.79867 12.6275 4.70066 11.9189 3.62452 11.0308C1.80908 9.53036 0.689199 8.04302 0.641079 7.98177C0.452974 7.73243 0.452974 7.39121 0.641079 7.14186C0.689199 7.08062 1.80908 5.59327 3.62452 4.0928C4.70066 3.20477 5.79867 2.49609 6.88793 1.98427C8.27903 1.33247 9.66139 1 11 1C12.3386 1 13.721 1.33247 15.1121 1.98427C16.2013 2.49609 17.2993 3.20477 18.3755 4.0928C20.1909 5.59327 21.3152 7.08062 21.3589 7.14186C21.547 7.39121 21.547 7.73243 21.3589 7.98177C21.3108 8.04302 20.1909 9.53036 18.3755 11.0308C17.2993 11.9189 16.2013 12.6275 15.1121 13.1394C13.721 13.7912 12.3386 14.1236 11 14.1236ZM2.10218 7.56182C3.20019 8.86106 6.82668 12.7238 11 12.7238C15.1821 12.7238 18.7998 8.86106 19.8978 7.56182C18.7998 6.26258 15.1733 2.39985 11 2.39985C6.81794 2.39985 3.20019 6.26258 2.10218 7.56182Z" fill="#687884"/>
<path d="M11 10.7115C9.26331 10.7115 7.85033 9.29851 7.85033 7.56182C7.85033 5.82512 9.26331 4.41215 11 4.41215C12.7367 4.41215 14.1497 5.82512 14.1497 7.56182C14.1497 9.29851 12.7367 10.7115 11 10.7115ZM11 5.812C10.0332 5.812 9.25018 6.59504 9.25018 7.56182C9.25018 8.52859 10.0332 9.31164 11 9.31164C11.9668 9.31164 12.7498 8.52859 12.7498 7.56182C12.7498 6.59504 11.9668 5.812 11 5.812Z" fill="#687884"/>
<path d="M11 14.1236C9.66139 14.1236 8.27903 13.7912 6.88793 13.1394C5.79867 12.6275 4.70066 11.9189 3.62452 11.0308C1.80908 9.53036 0.689199 8.04302 0.641079 7.98177C0.452974 7.73243 0.452974 7.39121 0.641079 7.14186C0.689199 7.08062 1.80908 5.59327 3.62452 4.0928C4.70066 3.20477 5.79867 2.49609 6.88793 1.98427C8.27903 1.33247 9.66139 1 11 1C12.3386 1 13.721 1.33247 15.1121 1.98427C16.2013 2.49609 17.2993 3.20477 18.3755 4.0928C20.1909 5.59327 21.3152 7.08062 21.3589 7.14186C21.547 7.39121 21.547 7.73243 21.3589 7.98177C21.3108 8.04302 20.1909 9.53036 18.3755 11.0308C17.2993 11.9189 16.2013 12.6275 15.1121 13.1394C13.721 13.7912 12.3386 14.1236 11 14.1236ZM2.10218 7.56182C3.20019 8.86106 6.82668 12.7238 11 12.7238C15.1821 12.7238 18.7998 8.86106 19.8978 7.56182C18.7998 6.26258 15.1733 2.39985 11 2.39985C6.81794 2.39985 3.20019 6.26258 2.10218 7.56182Z" stroke="#687884" stroke-width="0.6"/>
<path d="M11 10.7115C9.26331 10.7115 7.85033 9.29851 7.85033 7.56182C7.85033 5.82512 9.26331 4.41215 11 4.41215C12.7367 4.41215 14.1497 5.82512 14.1497 7.56182C14.1497 9.29851 12.7367 10.7115 11 10.7115ZM11 5.812C10.0332 5.812 9.25018 6.59504 9.25018 7.56182C9.25018 8.52859 10.0332 9.31164 11 9.31164C11.9668 9.31164 12.7498 8.52859 12.7498 7.56182C12.7498 6.59504 11.9668 5.812 11 5.812Z" stroke="#687884" stroke-width="0.6"/>
</svg>
