<svg width="566" height="456" viewBox="0 0 566 456" fill="none" xmlns="http://www.w3.org/2000/svg">
<ellipse cx="282.829" cy="435.438" rx="282.571" ry="20.562" fill="black" fill-opacity="0.05"/>
<path d="M66.7454 186.676C56.1529 190.743 44.5966 195.619 40.5448 204.488C31.8331 223.592 64.247 241.331 60.8597 261.499C57.9589 278.783 32.1419 285.861 17.7596 298.878C6.3343 309.212 2.28256 324.486 7.46654 337.677C12.6505 350.867 26.8737 361.493 43.614 364.677C69.9457 369.698 100.441 357.626 123.414 369.134C140.257 377.585 146.742 396.298 164.764 403.038C184.124 410.316 206.273 400.309 223.566 390.23C240.858 380.15 261.397 369.007 281.815 374.028C301.512 378.868 313.995 397.68 334.563 398.454C355.13 399.227 369.494 381.506 389.313 376.83C409.468 372.072 430.12 381.597 450.893 384.108C481.005 387.701 513.101 374.629 527.315 352.978C531.058 347.274 533.622 341.152 536.167 335.02C540.309 325.093 544.448 315.168 548.584 305.246C554.311 291.519 560.103 277.519 560.403 263.045C560.805 243.678 550.802 224.32 533.463 210.883C516.124 197.447 491.682 190.124 467.634 191.17C456.966 191.634 444.399 193.108 437.297 186.695C427.116 177.507 438.822 162.788 435.033 150.871C432.029 141.428 419.34 135.643 407.232 135.242C395.123 134.842 383.464 138.635 372.357 142.52C361.25 146.404 349.899 150.562 337.735 150.925C317.897 151.517 300.09 142.047 281.357 136.78C262.623 131.513 237.181 132.531 228.553 146.905C223.126 156.002 224.96 169.21 213.694 173.559C202.689 177.807 191.236 168.892 184.012 160.959C178.772 155.174 170.032 146.404 159.982 148.033C152.871 149.179 143.738 157.02 136.991 159.74C113.841 169.083 90.1576 177.716 66.7454 186.676Z" fill="#E8F1FD"/>
<path d="M550.506 310.727C550.97 310.878 551.463 310.914 551.944 310.832C551.458 310.832 550.982 310.775 550.506 310.727Z" fill="#459B00"/>
<path d="M31.1426 258.893C30.6754 258.744 30.1801 258.705 29.6953 258.779C30.1809 258.807 30.657 258.845 31.1426 258.893Z" fill="#459B00"/>
<g style="mix-blend-mode:overlay" opacity="0.4">
<path d="M40.3395 259.34C41.2917 259.616 42.2438 259.864 43.196 260.093C44.1379 260.331 45.0913 260.521 46.0524 260.664C45.201 260.154 44.3094 259.714 43.3864 259.35C42.4526 258.98 41.499 258.662 40.53 258.398C39.5896 258.125 38.6363 257.9 37.6736 257.722C36.6903 257.538 35.6935 257.436 34.6934 257.417C35.6455 257.826 36.5976 258.16 37.4831 258.474C38.3686 258.788 39.3969 259.074 40.3395 259.34Z" fill="white"/>
</g>
<g style="mix-blend-mode:overlay" opacity="0.4">
<path d="M39.8828 260.292C38.9391 260.131 37.9837 260.048 37.0264 260.045C37.9785 260.435 38.845 260.75 39.7495 261.045C40.654 261.34 41.5776 261.625 42.4916 261.892C43.4057 262.159 44.3198 262.406 45.2433 262.644C46.1669 262.882 47.1 263.101 48.0521 263.254C47.2394 262.726 46.3787 262.277 45.4814 261.911C44.5937 261.539 43.6844 261.221 42.7582 260.959C41.8142 260.679 40.8539 260.456 39.8828 260.292V260.292Z" fill="white"/>
</g>
<path d="M494.701 191.976C494.701 191.976 486.132 200.069 485.18 201.497C484.227 202.926 470.897 255.293 470.897 255.293L494.701 269.575V191.976Z" fill="#F1416C"/>
<path d="M522.456 139.542C522.978 139.158 523.578 138.895 524.214 138.771C524.85 138.647 525.506 138.665 526.134 138.824C526.762 138.983 527.347 139.28 527.847 139.692C528.347 140.104 528.749 140.622 529.025 141.208C531.138 143.702 532.962 146.426 534.462 149.33C535.414 151.044 536.366 152.872 536.309 154.824C536.161 156.098 535.78 157.334 535.186 158.47L533.424 162.431C532.548 164.335 531.434 166.544 529.368 167.078C530.711 167.249 531.158 169.172 530.416 170.305C529.54 171.348 528.34 172.065 527.007 172.343C523.831 173.237 520.911 174.868 518.485 177.104C515.732 179.425 512.251 180.709 508.65 180.731C505.395 180.668 502.284 179.379 499.938 177.123C497.081 174.438 497.453 170.553 497.5 166.811L497.681 152.938C497.59 151.168 497.839 149.397 498.414 147.721C499.557 145.112 501.994 144.788 504.127 144.721L524.998 144.112" fill="#5E3C69"/>
<path d="M515.799 171.601L523.54 187.463L519.998 190.32C518.96 191.146 517.737 191.708 516.433 191.957C515.13 192.207 513.786 192.137 512.515 191.753C511.245 191.369 510.087 190.683 509.14 189.754C508.193 188.824 507.485 187.679 507.078 186.416L502.574 172.467L515.799 171.601Z" fill="#FFB29D"/>
<g style="mix-blend-mode:multiply" opacity="0.32">
<path d="M507.508 185.892L501.795 172.657L515.649 171.601L519.581 182.169C515.98 184.507 511.8 185.796 507.508 185.892V185.892Z" fill="#E29EA6"/>
</g>
<path d="M493.492 168.782C493.8 171.349 494.707 173.808 496.139 175.961C497.51 178.056 499.224 178.76 501.328 179.551C507.308 181.779 518.467 180.903 521.618 174.152C522.025 173.179 522.291 172.153 522.409 171.105C523.742 163.012 525.627 153.748 517.772 148.492C515.58 147.136 513.229 146.055 510.773 145.274C506.679 143.817 500.586 141.97 497.301 146.616C495.396 149.311 495.93 154.681 495.139 158.042C494.311 161.498 493.14 165.059 493.492 168.782Z" fill="#FFB29D"/>
<path d="M516.494 159.823C516.628 159.823 516.57 159.442 516.199 158.937C515.634 158.253 514.921 157.706 514.114 157.338C513.262 156.925 512.336 156.689 511.391 156.643C510.677 156.643 510.286 156.757 510.305 156.871C510.324 156.985 511.953 157.242 513.609 158.052C515.266 158.861 516.209 159.908 516.494 159.823Z" fill="#5E3C69"/>
<path d="M502.937 154.681C502.937 154.567 502.67 154.367 502.147 154.205C501.47 154.009 500.763 153.938 500.061 153.995C499.421 154.027 498.798 154.221 498.252 154.557C497.862 154.833 497.824 155.138 497.957 155.205C498.09 155.271 498.348 155.205 498.747 155.109C499.147 155.014 499.7 154.938 500.395 154.881C501.709 154.786 502.889 154.938 502.937 154.681Z" fill="#5E3C69"/>
<path d="M499.814 169.325L512.392 170.915C512.392 170.915 512.668 176.018 507.489 176.085C500.357 176.171 499.814 169.325 499.814 169.325Z" fill="#5E3C69"/>
<path d="M506.545 173.048C507.406 172.787 508.311 172.71 509.204 172.821C510.096 172.933 510.955 173.23 511.725 173.695V173.695C511.321 174.464 510.701 175.098 509.941 175.519C509.182 175.94 508.316 176.13 507.45 176.066C506.068 176.12 504.695 175.812 503.47 175.171C504.246 174.158 505.322 173.415 506.545 173.048Z" fill="#CD4B76"/>
<path d="M508.631 162.66C509.087 162.273 509.64 162.016 510.23 161.917C510.78 161.845 511.339 161.894 511.868 162.06C512.412 162.225 512.928 162.469 513.401 162.784C513.893 163.098 514.331 163.49 514.696 163.945V164.012C514.727 164.034 514.763 164.046 514.801 164.046C514.838 164.046 514.875 164.034 514.905 164.012C515.172 163.85 515.058 163.565 514.763 163.622L515.02 163.717C514.804 163.065 514.411 162.485 513.887 162.041C513.363 161.587 512.74 161.261 512.068 161.089C511.38 160.9 510.649 160.936 509.983 161.194C509.667 161.329 509.382 161.529 509.149 161.782C508.916 162.034 508.74 162.334 508.631 162.66V162.66Z" fill="#5E3C69"/>
<path d="M502.052 162.146C501.82 161.594 501.445 161.114 500.966 160.756C500.507 160.448 499.988 160.241 499.443 160.146C498.884 160.041 498.313 160.022 497.748 160.089C497.166 160.145 496.596 160.296 496.063 160.537H495.987C495.952 160.554 495.913 160.558 495.875 160.547C495.838 160.537 495.807 160.513 495.787 160.479C495.625 160.222 495.853 160.013 496.091 160.203H495.815C496.308 159.731 496.92 159.402 497.586 159.251C498.262 159.089 498.967 159.089 499.643 159.251C500.342 159.4 500.975 159.767 501.452 160.299C501.675 160.548 501.844 160.841 501.947 161.159C502.05 161.477 502.086 161.813 502.052 162.146V162.146Z" fill="#5E3C69"/>
<path d="M527.141 157.804C527.658 158.106 528.088 158.536 528.39 159.053C528.692 159.571 528.855 160.157 528.864 160.756C528.997 162.524 528.548 164.287 527.585 165.776C526.623 167.264 525.199 168.397 523.532 169.001C523.049 169.223 522.513 169.302 521.987 169.23C521.461 169.157 520.966 168.936 520.561 168.592C519.857 167.773 520.123 166.516 520.504 165.497C521.247 163.536 524.16 156.5 527.141 157.804Z" fill="#FFB29D"/>
<path d="M527.739 160.679C527.272 160.7 526.82 160.851 526.435 161.117C525.462 161.69 524.672 162.529 524.159 163.536C523.651 164.527 523.31 165.595 523.15 166.697C523.047 167.146 523.015 167.609 523.055 168.068C523.222 167.645 523.341 167.204 523.407 166.754C523.629 165.696 523.988 164.672 524.473 163.707C524.97 162.757 525.689 161.94 526.568 161.327C527.254 160.87 527.758 160.736 527.739 160.679Z" fill="#5E3C69"/>
<path d="M524.216 167.439C524.216 167.439 524.435 167.259 524.673 166.887C524.999 166.403 525.244 165.869 525.397 165.307C525.573 164.733 525.573 164.119 525.397 163.545C525.245 163.107 525.026 162.907 524.988 162.936C524.949 162.964 525.073 163.202 525.159 163.612C525.258 164.146 525.235 164.696 525.092 165.221C524.938 165.752 524.738 166.268 524.492 166.763C524.216 167.154 524.14 167.411 524.216 167.439Z" fill="#5E3C69"/>
<path d="M529.093 142.722C529.759 145.293 529.093 147.892 528.14 150.292C527.426 152.091 526.846 154.69 525.903 156.328C522.799 161.708 517.743 153.634 518.124 153.405C515.001 155.233 512.411 153.186 509.374 152.51C506.66 152.071 503.894 152.054 501.176 152.462C500.043 152.577 496.663 153.605 495.644 152.986C494.435 152.243 495.472 151.358 496.939 150.996C493.711 151.672 488.37 150.339 488.969 146.016C489.217 144.179 491.283 142.674 493.006 143.36C492.152 142.818 491.481 142.03 491.083 141.1C490.684 140.17 490.576 139.141 490.773 138.148C490.969 137.155 491.462 136.245 492.185 135.537C492.908 134.829 493.828 134.357 494.825 134.181C497.777 133.648 500.538 135.781 503.528 136.086C506.879 136.457 510.012 134.562 513.306 133.867C515.621 133.437 518.007 133.579 520.254 134.283C522.501 134.987 524.542 136.23 526.198 137.904C527.587 139.214 528.588 140.881 529.093 142.722V142.722Z" fill="#5E3C69"/>
<path d="M526.931 437.038C522.171 441.313 510.145 445.169 507.613 439.647C506.594 437.419 508.013 434.801 509.365 432.763C513.392 426.698 517.334 422.394 515.887 414.52L527.56 416.072C526.951 415.986 527.798 422.604 527.95 423.327C528.798 427.241 530.464 430.84 528.674 434.858C528.25 435.697 527.657 436.439 526.931 437.038V437.038Z" fill="#F1416C"/>
<path d="M488.427 414.529C483.124 415.719 481.343 415.434 475.926 414.625L466.319 421.194C466.319 421.194 455.331 428.231 456.14 431.182C456.95 434.134 486.133 427.259 486.133 427.259C486.802 427.117 487.432 426.833 487.981 426.426C488.53 426.018 488.985 425.497 489.315 424.898C489.645 424.299 489.842 423.636 489.892 422.954C489.943 422.273 489.846 421.588 489.608 420.947C488.78 417.814 487.856 417.214 488.427 414.529Z" fill="#F1416C"/>
<path d="M536.442 280.306C536.442 280.306 537.07 302.101 536.242 307.918C534.338 321.296 528.501 422.518 528.815 421.337C528.815 421.337 520.694 423.451 515.733 420.29C510.772 417.129 505.174 314.64 505.174 314.64L499.794 314.107L489.244 353.43C489.244 353.43 492.406 415.605 490.377 415.919C488.349 416.234 474.41 418.671 473.506 415.196C472.601 411.72 467.402 348.689 467.402 348.689L489.454 278.44L536.442 280.306Z" fill="#FFBE9D"/>
<g style="mix-blend-mode:multiply" opacity="0.32">
<path d="M482.666 300.111C487.132 308.68 499.805 314.06 499.805 314.06L489.255 353.383C489.255 353.383 492.416 415.558 490.388 415.872C488.36 416.186 474.421 418.624 473.516 415.148C472.612 411.673 467.413 348.641 467.413 348.641L482.666 300.111Z" fill="#FFBE9D"/>
</g>
<path d="M549.582 195.385C545.517 206.544 539.185 210.2 539.937 222.045C540.813 235.889 535.853 250.314 536.729 264.158C536.995 268.366 538.528 272.927 538.023 277.136C537.452 281.896 531.082 282.268 526.998 283.22C514.084 286.26 500.558 285.388 488.141 280.716C487.094 280.316 488.312 263.777 488.341 262.149C488.5 253.954 488.712 245.756 488.979 237.555C489.426 223.854 488.922 208.362 489.931 199.174C490.702 192.3 499.071 187.187 500.29 186.882C506.955 185.226 511.716 183.616 518.571 183.226C535.072 182.293 549.487 195.623 549.582 195.385Z" fill="#F1416C"/>
<g style="mix-blend-mode:multiply" opacity="0.32">
<path d="M505.564 184.464C501.755 185.14 498.67 186.254 498.994 188.32C499.193 189.078 499.55 189.784 500.043 190.393C500.535 191.002 501.151 191.5 501.85 191.853C508.277 195.661 526.339 192.567 528.853 186.883C531.367 181.198 521.236 182.484 516.875 183.15C514.495 183.521 509.62 183.75 505.564 184.464Z" fill="#E29EA6"/>
</g>
<path d="M504.831 183.35C503.563 183.366 502.302 183.545 501.08 183.883C497.052 185.121 497.976 187.816 501.08 189.596C505.841 192.405 513.505 191.415 518.523 190.148C522.446 189.196 533.481 184.435 525.864 180.627C524.301 179.879 522.513 179.746 520.856 180.256C519.228 180.77 517.999 181.893 516.419 182.464C514.99 182.876 513.507 183.072 512.02 183.045L505.869 183.255L504.831 183.35Z" fill="#F1416C"/>
<path d="M258.927 414.282C264.221 415.938 266.049 415.796 271.628 415.434L280.816 422.918C280.816 422.918 291.385 431.001 290.338 433.924C289.29 436.847 260.174 427.393 260.174 427.393C259.516 427.186 258.909 426.841 258.393 426.383C257.877 425.925 257.463 425.362 257.18 424.733C256.897 424.103 256.75 423.421 256.749 422.731C256.748 422.041 256.893 421.358 257.175 420.728C258.298 417.576 259.279 417.052 258.927 414.282Z" fill="#AC7800"/>
<path d="M234.037 415.091C228.62 416.262 226.811 415.948 221.288 415.091L211.453 421.709C211.453 421.709 200.179 428.783 200.979 431.792C201.779 434.801 231.619 428.059 231.619 428.059C232.299 427.916 232.94 427.629 233.5 427.218C234.06 426.807 234.525 426.28 234.865 425.675C235.205 425.069 235.412 424.397 235.471 423.705C235.53 423.013 235.441 422.316 235.209 421.661C234.371 418.424 233.438 417.824 234.037 415.091Z" fill="#AC7800"/>
<path d="M307.095 95.077C307.218 94.5914 307.352 94.1249 307.523 93.6393C307.78 92.8966 308.028 91.2113 308.742 90.7828C308.799 90.7828 310.56 90.0307 310.37 90.6019C311.674 86.6791 314.179 90.9733 314.712 92.7538C316.043 97.3295 316.32 102.147 315.521 106.845C314.74 110.321 312.912 117.224 308.009 116.091C301.344 114.567 301.934 103.713 301.725 98.6285C303.876 99.0093 304.486 100.847 305.676 102.304C306.304 100.818 306.714 96.6004 307.095 95.077Z" fill="#FFB29D"/>
<path d="M242.54 178.922L257.251 175.961L283.606 153.453L301.696 108.702C301.696 108.702 315.026 110.187 314.436 113.463C313.846 116.738 299.011 168.011 299.011 168.011L261.992 202.964L242.54 178.922Z" fill="#FFCF26"/>
<g style="mix-blend-mode:multiply" opacity="0.32">
<path d="M262.877 202.031L260.059 185.388L290.717 163.822L314.407 113.463L299.011 167.963L262.877 202.031Z" fill="#E29EA6"/>
</g>
<path d="M152.705 95.077C152.581 94.5914 152.448 94.1249 152.277 93.6393C152.02 92.8966 151.772 91.2113 151.058 90.7828C151.001 90.7828 149.239 90.0307 149.43 90.6019C148.125 86.6791 145.621 90.9733 145.088 92.7538C143.741 97.3326 143.451 102.157 144.241 106.864C145.022 110.34 146.85 117.243 151.753 116.11C158.37 114.586 157.828 103.732 158.037 98.6475C155.885 99.0284 155.276 100.866 154.086 102.323C153.486 100.818 153.077 96.6004 152.705 95.077Z" fill="#FFB29D"/>
<path d="M217.251 178.922L202.54 175.961L176.175 153.453L158.085 108.702C158.085 108.702 144.755 110.187 145.345 113.463C145.936 116.738 160.779 168.011 160.779 168.011L202.931 205.906L217.251 178.922Z" fill="#FFCF26"/>
<g style="mix-blend-mode:multiply" opacity="0.32">
<path d="M201.98 204.668L203.646 191.814L169.074 163.822L145.375 113.463L160.771 167.963L201.98 204.668Z" fill="#E29EA6"/>
</g>
<path d="M267.914 262.454L274.722 415.881C274.722 415.881 257.583 418.547 255.765 413.806C253.946 409.064 240.959 270.156 240.959 270.156L267.914 262.454Z" fill="#263238"/>
<g style="mix-blend-mode:multiply" opacity="0.32">
<path d="M267.914 262.454L274.722 415.881C274.722 415.881 257.583 418.547 255.765 413.806C253.946 409.064 240.959 270.156 240.959 270.156L267.914 262.454Z" fill="#E29EA6"/>
</g>
<path d="M211.634 269.89L215.442 416.519C215.442 416.519 234.399 419.776 236.18 416.519C237.96 413.263 242.693 295.083 242.693 295.083L249.215 284.715L265.801 262.815L211.634 269.89Z" fill="#263238"/>
<path d="M259.098 182.483C256.175 181.921 253.604 179.846 250.528 179.274C246.788 178.718 243 178.555 239.226 178.789C232.228 178.789 225.459 178.875 218.394 178.418C217.298 178.282 216.187 178.333 215.109 178.57C211.757 179.522 210.71 186.406 208.444 189.043C207.197 190.519 202.883 204.116 202.95 205.896C203.626 227.453 202.245 249.504 205.473 270.794C205.625 271.822 211.891 273.393 212.871 273.651C215.594 274.422 218.389 274.907 221.212 275.098C226.477 275.469 231.962 275.155 237.246 275.05C248.548 274.822 260.097 273.651 270.818 270.004C270.228 263.644 270.542 256.998 269.866 250.523C269.371 245.762 268.829 241.002 268.153 236.317C265.772 219.798 262.944 203.335 259.936 186.92C259.65 185.454 259.345 183.902 259.098 182.483Z" fill="#FFCF26"/>
<g style="mix-blend-mode:multiply" opacity="0.32">
<path d="M230.047 240.859C227.039 241.23 223.859 241.23 221.107 242.125C218.355 243.02 216.194 245.296 217.546 247.153C218.898 249.009 222.354 249.247 225.287 249.257C228.594 249.257 231.891 249.177 235.179 249.019C242.968 248.609 251.413 247.438 256.336 243.306C259.421 240.735 260.659 237.203 259.611 233.965C258.983 232.014 256.879 228.538 253.718 227.872C249.195 226.92 248.957 229.29 247.272 231.442C245.177 234.084 242.573 236.279 239.614 237.896C236.655 239.514 233.402 240.521 230.047 240.859Z" fill="#E29EA6"/>
</g>
<path d="M209.32 144.807C208.744 145.14 208.266 145.617 207.932 146.191C207.597 146.766 207.42 147.418 207.416 148.083C207.291 150.032 207.81 151.969 208.891 153.596C209.973 155.223 211.558 156.45 213.405 157.09C214.519 157.452 215.918 157.499 216.68 156.604C217.442 155.709 217.127 154.31 216.68 153.196C215.899 151.044 212.595 143.332 209.32 144.807Z" fill="#FFB29D"/>
<path d="M208.701 148.016C209.217 148.025 209.72 148.184 210.148 148.473C211.225 149.098 212.106 150.011 212.69 151.111C213.26 152.199 213.649 153.373 213.842 154.586C213.962 155.078 214.004 155.585 213.966 156.09C213.781 155.624 213.647 155.138 213.566 154.643C213.304 153.485 212.894 152.365 212.347 151.311C211.789 150.267 210.985 149.375 210.005 148.711C209.243 148.188 208.682 148.016 208.701 148.016Z" fill="#5E3C69"/>
<path d="M212.69 155.386C212.642 155.386 212.452 155.186 212.176 154.786C211.814 154.255 211.537 153.67 211.357 153.053C211.175 152.431 211.175 151.77 211.357 151.149C211.528 150.663 211.757 150.444 211.795 150.473C211.833 150.501 211.709 150.768 211.623 151.215C211.527 151.806 211.559 152.41 211.719 152.986C211.899 153.569 212.128 154.136 212.404 154.681C212.69 155.081 212.756 155.357 212.69 155.386Z" fill="#5E3C69"/>
<path d="M249.605 144.807C250.181 145.14 250.66 145.617 250.994 146.191C251.328 146.766 251.506 147.418 251.51 148.083C251.636 150.033 251.118 151.97 250.036 153.597C248.954 155.225 247.368 156.452 245.521 157.09C244.407 157.452 243.007 157.499 242.255 156.604C241.503 155.709 241.798 154.31 242.255 153.196C243.026 151.044 246.33 143.332 249.605 144.807Z" fill="#FFB29D"/>
<path d="M250.223 148.016C249.707 148.026 249.204 148.185 248.776 148.473C247.699 149.098 246.818 150.011 246.234 151.111C245.664 152.199 245.275 153.373 245.081 154.586C244.962 155.078 244.92 155.585 244.958 156.09C245.142 155.624 245.276 155.138 245.358 154.643C245.624 153.485 246.036 152.365 246.586 151.311C247.141 150.268 247.942 149.376 248.919 148.711C249.68 148.188 250.242 148.016 250.223 148.016Z" fill="#5E3C69"/>
<path d="M246.215 155.386C246.262 155.386 246.462 155.186 246.729 154.786C247.091 154.253 247.37 153.669 247.557 153.053C247.739 152.431 247.739 151.77 247.557 151.149C247.386 150.663 247.148 150.444 247.11 150.473C247.072 150.501 247.195 150.768 247.281 151.215C247.383 151.805 247.35 152.411 247.186 152.986C247.012 153.571 246.786 154.138 246.51 154.681C246.281 155.081 246.167 155.357 246.215 155.386Z" fill="#5E3C69"/>
<path d="M236.74 164.345L238.159 178.008C238.349 180.979 235.188 184.435 232.208 184.435H229.695C227.086 184.435 224.191 180.627 223.877 178.008L222.734 160.175L236.74 164.345Z" fill="#FFB29D"/>
<g style="mix-blend-mode:multiply" opacity="0.32">
<path d="M224.286 173.133L222.734 160.175L236.74 164.345L237.388 174.476C232.976 175.069 228.486 174.609 224.286 173.133V173.133Z" fill="#E29EA6"/>
</g>
<path d="M245.243 156.09C244.881 159.798 243.218 163.259 240.549 165.859C235.645 170.62 229.656 170.791 223.61 168.249C218.592 166.135 216.174 163.488 215.46 158.089C214.717 152.481 213.156 146.921 215.25 141.465C216.346 138.626 218.258 136.174 220.744 134.419C223.022 132.897 225.486 131.675 228.076 130.782C232.36 129.106 238.74 126.974 242.263 132.068C246.328 137.923 245.785 149.082 245.262 155.871C245.252 155.919 245.252 156.004 245.243 156.09Z" fill="#FFB29D"/>
<path d="M220.307 143.76C220.174 143.693 220.307 143.332 220.821 142.874C221.571 142.247 222.458 141.806 223.411 141.589C224.421 141.327 225.475 141.275 226.506 141.437C227.286 141.57 227.686 141.799 227.639 141.913C227.591 142.027 225.734 141.913 223.83 142.475C221.926 143.036 220.631 143.912 220.307 143.76Z" fill="#5E3C69"/>
<path d="M233.875 142.189C233.875 142.075 234.446 141.98 235.313 142.027C236.399 142.087 237.472 142.295 238.502 142.646C239.376 142.897 240.182 143.339 240.864 143.941C241.283 144.379 241.178 144.703 240.94 144.731C240.548 144.665 240.173 144.522 239.835 144.312C239.293 144.074 238.464 143.732 237.531 143.417C235.655 142.77 233.827 142.456 233.875 142.189Z" fill="#5E3C69"/>
<path d="M236.866 150.168C237.456 150.168 238.027 149.387 237.942 148.416C237.856 147.444 237.151 146.692 236.561 146.711C235.971 146.73 235.704 147.511 235.78 148.454C235.856 149.396 236.266 150.168 236.866 150.168Z" fill="#5E3C69"/>
<path d="M223.678 150.92C224.259 151.025 224.954 150.358 225.05 149.396C225.145 148.435 224.583 147.559 224.002 147.492C223.421 147.426 223.05 148.121 222.917 149.063C222.783 150.006 223.088 150.815 223.678 150.92Z" fill="#5E3C69"/>
<path d="M230.724 146.664C230.905 147.616 231.01 148.568 231.115 149.52L231.41 152.329L231.486 153.034V153.377C231.482 153.44 231.482 153.504 231.486 153.567C231.547 153.693 231.647 153.797 231.772 153.862C231.843 153.905 231.92 153.937 232 153.957C232.184 153.997 232.354 154.082 232.495 154.205C232.737 154.441 232.877 154.762 232.886 155.1C232.883 155.39 232.808 155.675 232.667 155.928C232.372 156.34 231.975 156.668 231.515 156.881C231.816 156.534 232.055 156.138 232.219 155.709C232.29 155.549 232.307 155.37 232.269 155.199C232.232 155.028 232.141 154.873 232.01 154.757C231.959 154.747 231.908 154.747 231.857 154.757C231.7 154.738 231.546 154.697 231.4 154.633C231.154 154.545 230.936 154.393 230.769 154.192C230.601 153.991 230.491 153.749 230.448 153.491L230.391 153.129L230.315 152.415C230.217 151.466 230.188 150.512 230.229 149.559C230.292 148.579 230.458 147.609 230.724 146.664V146.664Z" fill="#5E3C69"/>
<path d="M233.913 161.193C233.818 161.193 233.57 161.355 233.113 161.612C232.484 161.95 231.795 162.16 231.085 162.231C230.317 162.289 229.545 162.218 228.8 162.022C228.219 161.879 227.848 161.727 227.848 161.784C227.848 161.841 228.076 162.098 228.686 162.365C229.513 162.696 230.406 162.83 231.294 162.755C232.103 162.697 232.875 162.398 233.513 161.898C233.884 161.536 233.989 161.231 233.913 161.193Z" fill="#5E3C69"/>
<path d="M237.294 159.499L225.754 159.984C225.754 159.984 225.116 164.592 229.81 165.05C236.275 165.678 237.294 159.499 237.294 159.499Z" fill="#5E3C69"/>
<path d="M230.894 162.374C230.133 162.069 229.315 161.928 228.495 161.959C227.675 161.99 226.87 162.193 226.134 162.555V162.555C226.445 163.282 226.961 163.903 227.618 164.342C228.276 164.782 229.047 165.021 229.838 165.031C231.089 165.184 232.359 165.01 233.522 164.526C232.897 163.548 231.977 162.794 230.894 162.374V162.374Z" fill="#CD4B76"/>
<path d="M219.898 138.618C221.076 138.857 222.292 138.815 223.45 138.494C223.281 138.25 223.186 137.961 223.176 137.664C223.167 137.366 223.244 137.073 223.398 136.818C223.552 136.564 223.777 136.359 224.044 136.229C224.312 136.099 224.611 136.049 224.907 136.085C226.2 137.566 227.879 138.659 229.757 139.24C231.635 139.822 233.638 139.87 235.542 139.38C235.372 139.086 235.284 138.751 235.286 138.411C235.289 138.071 235.383 137.738 235.558 137.447C235.733 137.155 235.982 136.916 236.281 136.754C236.58 136.591 236.916 136.512 237.256 136.523L239.503 141.094C241.812 140.817 243.945 139.724 245.517 138.01C247.089 136.297 247.996 134.077 248.072 131.753C248.072 120.413 232.038 120.651 224.269 121.47C218.765 122.06 211.891 124.86 212.9 131.687C213.231 133.413 214.077 134.999 215.326 136.236C216.575 137.473 218.169 138.304 219.898 138.618V138.618Z" fill="#5E3C69"/>
<path d="M217.08 126.564C214.223 126.945 212.186 129.602 211.205 132.277C210.47 134.354 210.154 136.557 210.277 138.757C210.399 140.957 210.958 143.111 211.919 145.093C212.347 145.95 212.871 146.778 213.338 147.597C214.223 149.044 216.061 153.386 217.556 150.454C218.013 149.568 217.356 146.864 217.365 145.798C217.373 144.237 217.51 142.68 217.775 141.142C218.47 137.333 220.345 133.525 223.592 131.278C225.058 130.312 226.722 129.691 228.462 129.46C230.202 129.229 231.971 129.395 233.637 129.945C235.296 130.517 236.816 131.43 238.1 132.625C239.384 133.821 240.404 135.272 241.093 136.886C243.301 142.094 241.93 148.311 244.025 153.539C243.016 151.006 246.348 147.921 247.567 146.045C248.992 143.74 249.695 141.06 249.586 138.352C249.49 134.429 248.434 129.44 245.901 126.355C243.606 123.565 236.57 124.736 234.313 127.174" fill="#5E3C69"/>
<path d="M105.124 210.857C104.581 207.248 107.085 203.735 108.447 200.231C109.521 197.321 109.853 194.189 109.412 191.119C108.971 188.048 107.772 185.136 105.923 182.645C105.025 181.601 104.198 180.497 103.448 179.341C102.838 178.117 102.066 176.98 101.153 175.961C99.068 173.781 96.3925 172.153 94.7358 169.563C92.0222 165.326 92.2698 158.927 91.2986 154.091C90.8634 151.641 89.8166 149.34 88.2554 147.403C86.6941 145.465 84.6689 143.954 82.3675 143.008C80.1975 142.126 77.8588 141.738 75.5205 141.872C73.1823 142.005 70.9028 142.657 68.8471 143.779L72.7414 145.464C70.5991 145.597 68.4568 145.864 66.3335 146.15C61.8965 146.73 56.4122 147.711 53.5082 151.51C52.556 152.824 52.1085 154.481 51.3468 155.919C50.067 158.26 48.2852 160.289 46.1291 161.86C43.2727 163.85 39.7878 164.593 37.0171 166.906C34.3987 169.077 31.4471 173.124 32.1136 176.751C32.4754 178.656 33.2942 179.941 32.9896 182.007C32.6716 183.986 31.8114 185.839 30.5045 187.358C27.8385 190.481 24.0204 192.328 20.745 194.795C17.4697 197.261 14.5085 200.945 14.9465 205.03C15.6701 211.885 25.2106 215.418 25.42 222.311C25.5343 225.491 23.5158 228.329 22.7064 231.404C21.1354 237.241 24.0394 243.601 28.6383 247.524C33.2371 251.447 39.2356 253.294 45.1769 254.398C63.2757 257.713 81.9625 254.958 98.3349 246.562C103.429 243.934 108.409 240.611 111.427 235.746C114.445 230.881 115.054 224.149 111.608 219.56C109.551 216.827 106.2 214.932 105.266 211.638C105.202 211.381 105.154 211.12 105.124 210.857V210.857Z" fill="#C7857C"/>
<g style="mix-blend-mode:multiply" opacity="0.32">
<path d="M57.7735 162.355C59.1541 164.459 58.3257 167.382 56.669 169.268C55.0123 171.153 52.7081 172.314 50.6324 173.714C48.5568 175.114 46.5477 176.98 46.0717 179.427C45.3861 183.007 48.1283 186.387 48.2806 190.034C48.5187 195.518 43.1581 199.384 40.6635 204.268C37.8071 209.8 38.9782 216.808 42.5678 221.845C46.1574 226.882 51.9464 230.081 57.9544 231.595C63.9624 233.109 70.256 233.061 76.4354 232.651C83.605 232.166 91.1269 231.042 96.735 226.558C102.343 222.073 105.019 213.228 100.648 207.515C98.4584 204.659 94.6118 202.373 94.8498 198.784C95.0878 195.194 99.1249 193.195 99.7819 189.796C100.277 187.196 98.6298 184.645 96.6493 182.883C94.6689 181.122 92.2981 179.817 90.5461 177.827C88.1467 175.095 87.2136 171.4 86.252 167.877C85.2903 164.354 84.1192 160.689 81.4151 158.242C78.711 155.795 73.9979 155.204 71.6081 157.966" fill="#E29EA6"/>
</g>
<path d="M56.6504 269.423C62.944 274.184 67.5714 275.393 73.1795 275.136C80.2063 274.793 96.0309 275.136 96.983 267.309C93.3744 255.579 94.2885 241.297 94.1266 228.148L76.6358 233.09C72.8844 234.146 64.5531 234.756 63.382 238.574C62.7155 240.726 63.4963 244.22 63.3154 246.543C63.1138 249.205 62.7257 251.849 62.1538 254.456C61.7539 256.236 58.6213 269.423 56.6504 269.423Z" fill="#FFB29D"/>
<g style="mix-blend-mode:multiply" opacity="0.32">
<path d="M80.254 246.524C83.4041 246.606 86.53 245.954 89.385 244.62C92.1558 243.144 94.4028 240.364 94.498 237.231L66.2385 241.326C60.0401 242.211 64.4295 244.572 67.9333 245.439C71.9751 246.338 76.1173 246.703 80.254 246.524V246.524Z" fill="#E29EA6"/>
</g>
<path d="M89.4706 356.877C89.4706 356.877 93.8218 369.693 101.763 426.565C103.124 428.545 105.009 431.954 104.21 434.591C103.41 437.229 89.1468 434.667 90.5465 430.03C94.9549 415.434 77.3593 386.013 73.5508 373.987L74.1792 359.553L89.4706 356.877Z" fill="#FFB29D"/>
<path d="M90.2794 424.993C95.0401 426.174 96.6397 425.945 101.543 425.336L110.036 431.468C110.036 431.468 119.786 438.037 118.996 440.665C118.206 443.293 92.0409 436.514 92.0409 436.514C91.4498 436.367 90.8967 436.096 90.418 435.719C89.9392 435.342 89.5456 434.869 89.2632 434.329C88.9807 433.789 88.8158 433.196 88.7793 432.588C88.7427 431.98 88.8354 431.371 89.0512 430.801C89.8986 427.945 90.7364 427.421 90.2794 424.993Z" fill="#24AB62"/>
<path d="M89.6499 353.193C89.6499 353.193 87.2791 366.523 66.7985 420.157C67.0461 422.546 67.0461 426.441 65.0752 428.364C63.1042 430.287 51.8404 421.166 55.3062 417.776C66.2177 407.122 65.0085 372.864 67.4745 360.486L74.9964 348.156L89.6499 353.193Z" fill="#FFB29D"/>
<path d="M57.4787 413.234C61.0683 416.567 62.5917 417.148 67.1715 418.947L71.6656 428.411C71.6656 428.411 77.0357 438.885 75.0647 440.789C73.0938 442.694 53.4702 424.136 53.4702 424.136C53.0196 423.72 52.6628 423.213 52.4235 422.648C52.1841 422.083 52.0678 421.473 52.0822 420.86C52.0967 420.247 52.2415 419.643 52.507 419.09C52.7726 418.537 53.1529 418.047 53.6225 417.652C55.7649 415.634 56.717 415.567 57.4787 413.234Z" fill="#24AB62"/>
<path d="M103.562 284.448C103.562 284.448 103.886 287.505 103.867 294.684C103.819 306.205 100.534 320.058 99.0491 325.067C96.6402 333.188 73.7794 405.694 73.7794 405.694C73.7794 405.694 59.9352 405.389 59.0402 399.371C58.1452 393.354 78.6162 291.37 78.6162 291.37L103.562 284.448Z" fill="#263238"/>
<g style="mix-blend-mode:multiply" opacity="0.32">
<path d="M103.562 284.448C103.562 284.448 103.886 287.505 103.867 294.684C103.819 306.205 100.534 320.058 99.0491 325.067C96.6402 333.188 73.7794 405.694 73.7794 405.694C73.7794 405.694 59.9352 405.389 59.0402 399.371C58.1452 393.354 78.6162 291.37 78.6162 291.37L103.562 284.448Z" fill="#E29EA6"/>
</g>
<path d="M69.7803 197.299C84.0143 194.132 96.794 186.329 106.114 175.114C114.816 164.554 119.13 152.196 121.291 138.98C121.595 137.633 121.643 136.241 121.434 134.876C121.301 134.248 118.673 124.898 122.196 129.068C122.622 129.772 123.116 130.432 123.671 131.039C122.862 130.382 123.671 122.813 123.776 121.518C123.765 121.019 123.894 120.528 124.147 120.099C124.287 119.886 124.499 119.731 124.745 119.664C124.991 119.597 125.253 119.623 125.48 119.737C125.676 119.896 125.832 120.098 125.937 120.328C126.518 121.451 127.099 122.565 127.689 123.679C128.194 123.521 128.732 123.501 129.247 123.624C129.761 123.746 130.233 124.005 130.612 124.374C131.352 125.114 131.886 126.032 132.164 127.04C134.859 135.209 128.908 139.675 126.994 147.102C126.223 150.11 124.747 152.815 124.328 155.871C120.377 184.921 99.3347 204.43 71.7226 214.494C70.9609 214.78 70.9038 216.656 71.218 215.932" fill="#FFB29D"/>
<path d="M82.985 190.529C90.2404 189.253 96.5054 184.721 101.076 179.189C105.646 173.657 108.855 167.125 111.911 160.641C115.329 153.376 118.69 146.016 120.585 138.237L128.355 141.56C127.498 150.684 125.554 159.672 122.566 168.334C120.449 174.87 117.399 181.066 113.511 186.73C108.321 193.995 101.333 199.841 94.4679 205.592C88.8693 210.267 83.185 214.989 76.501 218.046" fill="#50CD89"/>
<path d="M65.3332 243.754L101.753 238.726C101.753 238.726 101.524 225.054 101.553 224.082C101.635 220.658 102.081 217.252 102.886 213.923C103.476 211.276 102.419 208.505 100.858 206.306C98.8866 203.507 96.2206 201.307 94.1926 198.546C92.7548 196.575 90.5363 192.348 88.8034 190.605C86.5088 188.31 79.7962 192.509 76.6827 191.195C77.1969 190.491 77.7015 189.053 76.4637 189.701C72.8932 191.605 75.6163 191.472 72.1791 189.348C71.008 188.625 69.7987 189.824 67.1137 190.462C64.0764 191.176 53.0792 193.481 51.5843 196.004C47.9757 202.078 52.3746 209.258 53.0125 215.923C53.8504 224.644 55.1643 236.336 56.0022 245.058L65.3332 243.754Z" fill="#50CD89"/>
<path d="M66.9611 177.608C67.1706 182.579 65.2377 188.006 68.275 192.309C70.8363 195.937 74.5401 198.67 78.282 200.964C79.158 201.488 82.4048 204.002 83.4712 203.221C84.9089 202.155 81.9383 196.661 81.3098 195.204C79.699 191.453 78.9881 187.377 79.2342 183.302C79.2342 179.674 79.3389 176.056 79.396 172.429L66.9611 177.608Z" fill="#FFB29D"/>
<g style="mix-blend-mode:multiply" opacity="0.32">
<path d="M79.2169 184.454L79.3978 172.429L66.9629 177.599L67.3533 186.939C71.4489 187.063 75.5152 186.211 79.2169 184.454V184.454Z" fill="#E29EA6"/>
</g>
<path d="M89.6034 173.647C89.0089 176.172 87.8281 178.52 86.1567 180.503C84.5571 182.407 82.7671 182.95 80.5867 183.493C73.6646 185.216 64.1813 183.283 62.1152 174.276C60.8488 174.933 59.4111 173.705 59.0493 172.181C58.6875 170.658 59.1635 169.544 59.2873 168.135C59.3825 166.983 59.3349 165.859 59.4873 164.688C59.7282 161.813 60.4896 159.006 61.7343 156.404C63.1175 153.946 65.2028 151.957 67.7233 150.691C70.0565 149.582 72.5195 148.77 75.0548 148.273C79.3013 147.321 85.5283 146.121 88.3181 151.129C89.9081 153.986 88.7656 159.327 89.175 162.717C89.6035 166.297 90.3747 169.982 89.6034 173.647Z" fill="#FFB29D"/>
<path d="M56.0594 163.155C55.5181 163.505 55.076 163.988 54.7758 164.558C54.4756 165.129 54.3275 165.767 54.3456 166.411C54.2825 168.319 54.846 170.196 55.9498 171.753C57.0536 173.311 58.6371 174.465 60.4583 175.037C61.5533 175.352 62.9244 175.361 63.6289 174.466C64.3335 173.571 64.0098 172.21 63.5528 171.134C62.6673 169.058 59.211 161.622 56.0594 163.155Z" fill="#FFB29D"/>
<path d="M55.545 166.288C56.0499 166.279 56.5463 166.418 56.9733 166.687C58.0471 167.263 58.9353 168.131 59.5345 169.192C60.1288 170.235 60.544 171.371 60.7628 172.553C60.8916 173.027 60.9462 173.518 60.9246 174.009C60.7319 173.56 60.5882 173.09 60.4962 172.61C60.2033 171.486 59.7682 170.405 59.2013 169.391C58.6233 168.392 57.8134 167.546 56.84 166.925C56.0878 166.468 55.5355 166.345 55.545 166.288Z" fill="#5E3C69"/>
<path d="M59.6766 173.39C59.6766 173.39 59.4385 173.2 59.1624 172.819C58.7892 172.313 58.4998 171.751 58.3055 171.153C58.1208 170.531 58.1208 169.87 58.3055 169.248C58.4578 168.782 58.6864 168.553 58.7149 168.582C58.7435 168.611 58.6387 168.877 58.5721 169.315C58.4896 169.893 58.5384 170.482 58.7149 171.038C58.9045 171.604 59.1434 172.152 59.429 172.676C59.5718 173.086 59.7242 173.362 59.6766 173.39Z" fill="#5E3C69"/>
<path d="M66.4953 162.45C66.362 162.384 66.4953 162.031 67.0285 161.603C67.7878 161.026 68.6714 160.635 69.6088 160.46C70.6046 160.256 71.6314 160.256 72.6271 160.46C73.3888 160.622 73.7697 160.86 73.7126 160.974C73.6554 161.089 71.894 160.974 69.9611 161.365C68.0283 161.755 66.7715 162.612 66.4953 162.45Z" fill="#C7857C"/>
<path d="M72.7797 174.676C72.9035 174.676 73.1415 174.942 73.6271 175.333C74.2876 175.868 75.0483 176.266 75.8646 176.504C76.7474 176.746 77.6656 176.833 78.5782 176.761C79.3018 176.761 79.7589 176.618 79.8065 176.704C79.8541 176.79 79.4732 177.018 78.702 177.189C77.661 177.409 76.5822 177.369 75.5599 177.075C74.625 176.836 73.7849 176.318 73.151 175.59C72.7321 175.114 72.6845 174.742 72.7797 174.676Z" fill="#5E3C69"/>
<path d="M82.2061 160.879C82.2061 160.765 82.5488 160.603 83.1582 160.527C83.9096 160.434 84.6717 160.482 85.4052 160.67C86.081 160.832 86.706 161.159 87.2238 161.622C87.5856 161.993 87.5761 162.317 87.4238 162.374C87.2714 162.431 87.0144 162.289 86.6049 162.127C86.1955 161.965 85.5861 161.765 84.8911 161.584C83.501 161.184 82.2251 161.136 82.2061 160.879Z" fill="#5E3C69"/>
<path d="M80.0921 164.136C79.839 165.041 79.6794 165.969 79.616 166.906C79.5447 167.841 79.5447 168.78 79.616 169.715L79.6732 170.42V170.601C79.6686 170.677 79.6686 170.753 79.6732 170.829C79.707 170.979 79.7615 171.123 79.835 171.258C79.9899 171.535 80.2169 171.765 80.492 171.924C80.632 171.999 80.7831 172.05 80.9395 172.077C80.9897 172.066 81.0417 172.066 81.0919 172.077C81.2046 172.195 81.2807 172.343 81.3111 172.504C81.3415 172.664 81.3249 172.83 81.2632 172.981C81.0849 173.392 80.8369 173.769 80.5301 174.095C80.9918 173.886 81.3895 173.557 81.6822 173.143C81.8392 172.905 81.9251 172.628 81.9297 172.343C81.9358 172.182 81.9095 172.022 81.8522 171.871C81.795 171.721 81.708 171.583 81.5965 171.467C81.4619 171.341 81.2985 171.249 81.1204 171.201C81.0526 171.179 80.9884 171.146 80.93 171.105C80.8055 171.017 80.7096 170.895 80.6539 170.753C80.6217 170.684 80.5993 170.61 80.5872 170.534C80.5872 170.534 80.5872 170.458 80.5872 170.42V170.258V169.572L80.3873 166.821C80.3016 165.992 80.2254 165.069 80.0921 164.136Z" fill="#5E3C69"/>
<path d="M75.3012 168.734C74.8937 168.234 74.3617 167.85 73.7587 167.62C73.1903 167.439 72.5899 167.381 71.9973 167.449C71.3903 167.511 70.7963 167.665 70.2358 167.906C69.6491 168.129 69.1048 168.451 68.6267 168.858L68.56 168.915C68.5297 168.946 68.4886 168.963 68.4458 168.963C68.403 168.963 68.3619 168.946 68.3315 168.915C68.0827 168.698 67.8474 168.466 67.627 168.22C67.9507 168.306 68.2649 168.42 68.5791 168.535L68.2744 168.592C68.6409 167.946 69.1735 167.41 69.8169 167.04C70.4617 166.664 71.1858 166.446 71.9306 166.402C72.696 166.338 73.4613 166.525 74.111 166.935C74.4267 167.132 74.6963 167.395 74.9016 167.705C75.107 168.016 75.2432 168.367 75.3012 168.734V168.734Z" fill="#5E3C69"/>
<path d="M68.7046 168.382L68.3047 167.801L68.9997 167.944C69.0725 167.96 69.1361 168.004 69.177 168.066C69.2179 168.128 69.2329 168.204 69.2187 168.277C69.2006 168.351 69.1549 168.415 69.0911 168.455C69.0273 168.496 68.9503 168.511 68.876 168.496C68.8062 168.482 68.7448 168.441 68.7046 168.382Z" fill="#5E3C69"/>
<path d="M82.2143 168.811C82.4567 168.28 82.8468 167.831 83.3379 167.516C83.7988 167.259 84.315 167.119 84.8422 167.106C85.3959 167.087 85.9489 167.158 86.4799 167.316C87.0665 167.455 87.6261 167.69 88.1366 168.011L88.2033 168.058C88.23 168.085 88.2659 168.099 88.3033 168.099C88.3407 168.099 88.3766 168.085 88.4032 168.058C88.5806 167.813 88.7397 167.556 88.8793 167.287C88.6171 167.418 88.3628 167.565 88.1176 167.725H88.3937C87.9606 167.16 87.3903 166.714 86.737 166.43C86.1135 166.149 85.4287 166.031 84.747 166.088C84.0655 166.135 83.4236 166.426 82.938 166.906C82.6876 167.153 82.4934 167.451 82.3686 167.78C82.2437 168.108 82.1911 168.46 82.2143 168.811Z" fill="#5E3C69"/>
<path d="M374.606 414.615C369.408 416.243 367.608 416.101 362.133 415.748L353.107 423.108C353.107 423.108 342.729 431.049 343.786 433.915C344.842 436.781 373.416 427.498 373.416 427.498C374.071 427.301 374.676 426.966 375.19 426.514C375.704 426.063 376.114 425.506 376.393 424.881C376.672 424.257 376.814 423.58 376.808 422.896C376.802 422.212 376.648 421.538 376.358 420.918C375.244 417.881 374.292 417.357 374.606 414.615Z" fill="#004973"/>
<path d="M399.048 415.434C404.37 416.577 406.151 416.272 411.568 415.434L421.232 421.937C421.232 421.937 432.306 428.878 431.516 431.839C430.725 434.801 401.418 428.174 401.418 428.174C400.748 428.038 400.115 427.759 399.561 427.357C399.008 426.954 398.548 426.437 398.213 425.841C397.878 425.244 397.675 424.583 397.619 423.901C397.562 423.219 397.653 422.533 397.886 421.89C398.733 418.719 399.647 418.119 399.048 415.434Z" fill="#004973"/>
<path d="M389.136 115.71C389.478 115.367 389.812 115.005 390.088 114.624C390.583 114.025 391.878 112.958 391.887 112.139C391.887 112.063 391.592 110.235 391.211 110.673C393.839 107.579 388.974 107.693 387.193 108.121C382.662 109.318 378.462 111.529 374.911 114.586C372.388 117.005 367.513 122.061 370.959 125.603C375.606 130.363 384.47 124.403 388.831 122.004C387.412 120.385 385.556 120.813 383.728 120.547C384.708 119.299 388.031 116.824 389.136 115.71Z" fill="#FFB29D"/>
<path d="M376.253 180.541L356.106 163.336C355.658 162.95 355.372 162.408 355.307 161.82C355.241 161.232 355.401 160.641 355.754 160.165L380.424 127.212C380.424 127.212 372.397 116.738 369.95 118.919C367.922 120.718 343.976 148.359 335.721 157.3C335.94 158.052 335.264 163.069 334.769 166.469C334.622 167.466 334.711 168.485 335.029 169.442C335.346 170.399 335.883 171.269 336.597 171.982L371.597 207.049L390.707 183.483L376.253 180.541Z" fill="#2B363C"/>
<g style="mix-blend-mode:multiply" opacity="0.32">
<path d="M343.043 164.897L342.615 160.07L369.96 118.918L335.788 157.271H335.731L334.665 166.544C334.55 167.512 334.657 168.493 334.977 169.413C335.297 170.334 335.822 171.169 336.512 171.857L370.732 206.134L375.388 180.531L346.871 169.915C345.826 169.523 344.913 168.844 344.236 167.956C343.559 167.069 343.146 166.009 343.043 164.897V164.897Z" fill="#E29EA6"/>
</g>
<path d="M365.78 265.5L359.115 416.215C359.115 416.215 375.987 418.833 377.73 414.177C379.472 409.521 392.278 273.06 392.278 273.06L365.78 265.5Z" fill="#2B363B"/>
<g style="mix-blend-mode:multiply" opacity="0.32">
<path d="M366.075 269.89L359.058 416.215C359.058 416.215 375.93 418.833 377.672 414.177C379.414 409.521 392.221 275.098 392.221 275.098L366.075 269.89Z" fill="#455A64"/>
</g>
<path d="M421.061 272.746L417.252 416.767C417.252 416.767 398.629 419.966 396.886 416.767C395.144 413.568 390.478 297.502 390.478 297.502L384.07 287.314L367.817 265.786L421.061 272.746Z" fill="#2B363B"/>
<path d="M417.653 253.37C416.701 260.921 415.368 268.548 416.339 276.089C404.432 280.327 391.446 280.448 379.462 276.431C375.463 275.07 371.417 273.099 369.065 269.585C365.647 264.472 366.732 257.693 368.008 251.676C371.722 234.023 375.863 216.469 380.434 199.013C381.386 195.29 382.538 189.92 384.985 186.94C389.051 181.998 395.782 182.179 401.876 182.627C405.78 182.941 411.73 179.351 414.958 181.989C419.186 185.464 419.081 197.508 419.376 202.345C419.871 210.315 420.005 218.313 419.786 226.292C419.532 235.348 418.82 244.386 417.653 253.37V253.37Z" fill="#009EF7"/>
<path d="M435.906 194.794L449.579 246.591L423.1 269.861L435.906 194.794Z" fill="#5B89C2"/>
<path d="M435.906 194.794L449.579 246.591L423.1 269.861L435.906 194.794Z" fill="#2B363C"/>
<path d="M423.65 150.872C424.204 151.209 424.662 151.681 424.982 152.245C425.302 152.808 425.473 153.443 425.478 154.091C425.601 156.007 425.092 157.911 424.029 159.51C422.966 161.11 421.409 162.316 419.594 162.946C418.499 163.298 417.119 163.345 416.386 162.47C415.652 161.594 415.938 160.213 416.386 159.118C417.185 157.014 420.432 149.435 423.65 150.872Z" fill="#FFB29D"/>
<path d="M424.261 154.005C423.756 154.026 423.266 154.184 422.843 154.462C421.783 155.075 420.915 155.972 420.338 157.052C419.782 158.12 419.403 159.271 419.215 160.46C419.096 160.946 419.054 161.447 419.091 161.946C419.27 161.484 419.401 161.006 419.482 160.518C419.742 159.38 420.145 158.279 420.681 157.242C421.232 156.221 422.023 155.348 422.985 154.7C423.728 154.214 424.28 154.072 424.261 154.005Z" fill="#5E3C69"/>
<path d="M420.319 161.28C420.319 161.28 420.567 161.08 420.833 160.689C421.185 160.165 421.455 159.59 421.633 158.985C421.822 158.364 421.822 157.701 421.633 157.081C421.471 156.605 421.243 156.386 421.205 156.414C421.167 156.443 421.29 156.709 421.367 157.147C421.472 157.724 421.442 158.317 421.281 158.88C421.108 159.455 420.881 160.013 420.605 160.546C420.386 160.975 420.272 161.251 420.319 161.28Z" fill="#5E3C69"/>
<path d="M384.08 150.872C383.525 151.206 383.066 151.678 382.747 152.242C382.428 152.806 382.261 153.443 382.262 154.091C382.137 156.006 382.644 157.91 383.705 159.509C384.766 161.109 386.323 162.316 388.136 162.946C389.231 163.298 390.612 163.345 391.355 162.47C392.097 161.594 391.802 160.213 391.355 159.118C390.545 157.014 387.299 149.435 384.08 150.872Z" fill="#FFB29D"/>
<path d="M383.471 154.005C383.979 154.027 384.473 154.185 384.899 154.462C385.952 155.08 386.815 155.976 387.394 157.052C387.955 158.118 388.334 159.27 388.518 160.46C388.643 160.945 388.685 161.447 388.641 161.946C388.463 161.484 388.332 161.006 388.251 160.518C387.995 159.378 387.592 158.277 387.051 157.242C386.509 156.216 385.724 155.336 384.766 154.681C384.004 154.214 383.452 154.072 383.471 154.005Z" fill="#5E3C69"/>
<path d="M387.413 161.28C387.413 161.28 387.175 161.08 386.909 160.689C386.55 160.168 386.277 159.593 386.099 158.985C385.911 158.364 385.911 157.701 386.099 157.081C386.261 156.605 386.499 156.386 386.537 156.414C386.576 156.443 386.452 156.709 386.366 157.147C386.269 157.725 386.302 158.317 386.461 158.88C386.632 159.455 386.855 160.013 387.128 160.546C387.347 160.975 387.461 161.251 387.413 161.28Z" fill="#5E3C69"/>
<path d="M396.724 170.077L396.048 180.55C396.004 181.243 396.102 181.937 396.337 182.59C396.571 183.243 396.937 183.841 397.412 184.347C397.887 184.853 398.46 185.256 399.097 185.531C399.734 185.807 400.42 185.949 401.114 185.949H403.58C404.821 185.951 406.019 185.497 406.947 184.674C407.876 183.851 408.47 182.716 408.617 181.483L410.521 165.992L396.724 170.077Z" fill="#FFB29D"/>
<g style="mix-blend-mode:multiply" opacity="0.32">
<path d="M408.95 178.713L410.473 165.983L396.715 170.077L396.077 180.027C400.412 180.615 404.824 180.164 408.95 178.713V178.713Z" fill="#E29EA6"/>
</g>
<path d="M388.365 161.974C388.724 165.613 390.356 169.008 392.973 171.562C397.8 176.237 403.685 176.409 409.616 173.914C414.549 171.838 416.929 169.249 417.624 163.936C418.357 158.423 419.89 152.957 417.824 147.606C416.756 144.812 414.875 142.401 412.425 140.684C410.192 139.189 407.776 137.986 405.237 137.104C401.019 135.467 394.763 133.381 391.288 138.371C387.298 144.084 387.832 155.09 388.346 161.717C388.357 161.802 388.363 161.888 388.365 161.974V161.974Z" fill="#FFB29D"/>
<path d="M412.673 161.346C414.797 160.061 414.473 154.176 416.32 153.405C416.634 153.322 416.968 153.36 417.256 153.512C417.543 153.663 417.763 153.918 417.872 154.224C418.055 154.843 418.078 155.498 417.939 156.128C417.396 159.937 419.614 164.317 418.596 168.049C417.463 172.153 411.417 175.476 407.722 176.618C402.922 178.113 397.736 177.76 393.183 175.628C391.131 174.733 389.367 173.286 388.089 171.448C386.785 169.401 385.585 163.831 388.146 162.241C387.736 161.334 387.594 160.329 387.736 159.344C387.877 158.359 388.297 157.435 388.946 156.681C388.505 155.871 388.274 154.965 388.274 154.043C388.274 153.122 388.505 152.215 388.946 151.406C390.669 153.558 389.955 157.509 391.374 159.785C393.164 162.641 398.829 163.136 401.848 163.108C404.866 163.079 410.074 162.927 412.673 161.346Z" fill="#C7857C"/>
<path d="M412.835 149.863C412.968 149.796 412.835 149.435 412.33 148.987C411.592 148.371 410.717 147.94 409.779 147.73C408.787 147.473 407.754 147.418 406.741 147.568C405.98 147.702 405.589 147.93 405.637 148.044C405.684 148.159 407.465 148.044 409.445 148.597C411.426 149.149 412.54 150.015 412.835 149.863Z" fill="#C7857C"/>
<path d="M399.534 148.321C399.534 148.197 398.972 148.111 398.125 148.159C397.059 148.22 396.006 148.422 394.992 148.759C394.134 149.009 393.341 149.445 392.669 150.035C392.26 150.463 392.364 150.787 392.593 150.806C392.821 150.825 393.145 150.644 393.688 150.406C394.231 150.168 395.03 149.835 395.944 149.52C397.782 148.882 399.582 148.578 399.534 148.321Z" fill="#C7857C"/>
<path d="M396.601 156.147C396.02 156.147 395.458 155.386 395.544 154.433C395.63 153.481 396.315 152.739 396.896 152.758C397.477 152.777 397.743 153.548 397.667 154.472C397.591 155.395 397.191 156.147 396.601 156.147Z" fill="#5E3C69"/>
<path d="M402.629 152.71C402.457 153.662 402.353 154.614 402.248 155.5L401.953 158.261L401.886 158.946V159.289C401.896 159.349 401.896 159.41 401.886 159.47C401.822 159.595 401.723 159.697 401.601 159.765C401.532 159.805 401.459 159.834 401.382 159.851C401.203 159.895 401.036 159.979 400.896 160.099C400.777 160.211 400.682 160.347 400.616 160.498C400.551 160.648 400.516 160.81 400.515 160.975C400.508 161.262 400.581 161.545 400.725 161.793C401.012 162.205 401.403 162.533 401.858 162.746C401.563 162.404 401.327 162.014 401.163 161.593C401.104 161.44 401.092 161.273 401.13 161.114C401.167 160.954 401.252 160.81 401.372 160.698C401.422 160.688 401.474 160.688 401.524 160.698C401.674 160.678 401.821 160.64 401.962 160.584C402.269 160.457 402.527 160.233 402.695 159.946C402.779 159.795 402.837 159.631 402.867 159.461L402.914 159.099L403 158.394C403.097 157.445 403.125 156.491 403.086 155.538C403.03 154.582 402.877 153.635 402.629 152.71V152.71Z" fill="#5E3C69"/>
<path d="M399.505 166.982C399.591 166.982 399.838 167.144 400.286 167.392C400.902 167.725 401.578 167.932 402.276 168.001C403.027 168.062 403.784 167.994 404.513 167.801C405.094 167.658 405.465 167.506 405.465 167.563C405.465 167.62 405.246 167.877 404.637 168.135C403.826 168.466 402.948 168.596 402.076 168.515C401.282 168.457 400.524 168.166 399.895 167.677C399.524 167.316 399.429 167.059 399.505 166.982Z" fill="#FFB29D"/>
<path d="M405.923 155.681C406.316 155.241 406.819 154.913 407.38 154.729C407.914 154.57 408.477 154.535 409.027 154.624C409.588 154.698 410.134 154.858 410.645 155.1C411.183 155.336 411.678 155.657 412.112 156.052L412.169 156.109C412.197 156.136 412.235 156.151 412.274 156.151C412.313 156.151 412.35 156.136 412.378 156.109C412.616 155.919 412.464 155.652 412.178 155.748L412.445 155.814C412.136 155.198 411.661 154.68 411.074 154.319C410.499 153.955 409.847 153.73 409.17 153.662C408.46 153.575 407.741 153.722 407.123 154.081C406.819 154.245 406.554 154.473 406.347 154.75C406.14 155.026 405.995 155.343 405.923 155.681V155.681Z" fill="#5E3C69"/>
<path d="M413.14 144.026L412.721 144.084C403.313 145.207 394.763 144.921 387.07 138.514C385.746 137.409 384.452 136.057 384.214 134.343C383.976 132.629 385.404 130.677 387.07 130.973C386.721 130.2 386.635 129.335 386.826 128.509C387.017 127.683 387.474 126.943 388.127 126.402L399.086 126.212C398.822 125.102 398.984 123.934 399.542 122.939C400.099 121.944 401.011 121.196 402.095 120.842C401.971 123.784 404.713 126.079 407.493 127.059C410.274 128.04 413.311 128.202 415.948 129.506C417.521 130.308 418.767 131.632 419.472 133.25C420.177 134.869 420.298 136.682 419.814 138.38C418.9 142.303 416.605 143.541 413.14 144.026Z" fill="#C7857C"/>
<path d="M416.025 132.972C418.834 133.343 420.843 135.952 421.804 138.609C422.525 140.651 422.833 142.816 422.712 144.978C422.591 147.14 422.043 149.256 421.1 151.206C420.681 152.053 420.195 152.853 419.71 153.662C418.843 155.09 417.034 159.375 415.568 156.518C415.12 155.642 415.768 152.996 415.749 151.948C415.744 150.413 415.61 148.881 415.349 147.368C414.663 143.56 412.826 139.837 409.636 137.676C408.197 136.728 406.562 136.119 404.853 135.893C403.145 135.667 401.408 135.831 399.772 136.371C398.143 136.932 396.649 137.829 395.388 139.003C394.127 140.178 393.126 141.603 392.45 143.189C390.27 148.311 391.622 154.376 389.594 159.546C390.546 157.061 387.308 154.024 386.109 152.186C384.708 149.921 384.021 147.287 384.138 144.626C384.223 140.818 385.271 135.876 387.746 132.848C390.003 130.106 396.916 131.258 399.172 133.658" fill="#C7857C"/>
<path d="M414.958 181.988L435.905 194.795L424.85 303.615C424.85 303.615 412.339 298.959 411.168 294.883C409.997 290.808 414.958 181.988 414.958 181.988Z" fill="#2B363C"/>
<path d="M390.708 183.445L371.017 283.534C371.017 283.534 367.818 292.846 361.715 293.722C355.612 294.598 374.769 184.359 374.769 184.359L390.708 183.445Z" fill="#2B363C"/>
<g style="mix-blend-mode:multiply" opacity="0.32">
<path d="M399.209 260.626C401.128 260.704 403.038 260.933 404.922 261.311C406.683 261.787 408.064 263.006 407.197 264.006C406.331 265.006 404.122 265.12 402.246 265.129C400.133 265.129 398.022 265.085 395.915 264.996C390.925 264.787 385.517 264.149 382.356 261.959C380.385 260.578 379.595 258.683 380.261 256.95C380.592 256.143 381.11 255.426 381.772 254.858C382.434 254.29 383.222 253.888 384.07 253.685C386.926 253.17 387.126 254.446 388.202 255.589C390.478 258.093 394.144 260.102 399.209 260.626Z" fill="#E29EA6"/>
</g>
<path d="M401.562 153.043C401.583 154.295 401.231 155.525 400.553 156.578C399.874 157.63 398.899 158.458 397.75 158.956C396.601 159.454 395.331 159.601 394.099 159.377C392.867 159.153 391.729 158.568 390.829 157.698C389.929 156.827 389.307 155.709 389.042 154.485C388.778 153.261 388.882 151.986 389.342 150.822C389.802 149.657 390.597 148.655 391.626 147.942C392.656 147.229 393.874 146.837 395.126 146.816C395.957 146.802 396.783 146.953 397.557 147.258C398.33 147.563 399.036 148.018 399.634 148.597C400.231 149.175 400.709 149.865 401.04 150.628C401.371 151.391 401.548 152.212 401.562 153.043Z" stroke="white" stroke-width="0.704583" stroke-miterlimit="10"/>
<path d="M417.234 153.814C417.256 155.067 416.906 156.299 416.229 157.353C415.551 158.406 414.576 159.236 413.427 159.735C412.277 160.234 411.006 160.382 409.773 160.158C408.54 159.934 407.401 159.35 406.501 158.479C405.6 157.607 404.978 156.489 404.714 155.264C404.449 154.039 404.554 152.763 405.016 151.598C405.477 150.433 406.273 149.431 407.304 148.719C408.335 148.006 409.554 147.616 410.807 147.597C412.483 147.571 414.101 148.212 415.305 149.377C416.51 150.543 417.204 152.138 417.234 153.814Z" stroke="white" stroke-width="0.704583" stroke-miterlimit="10"/>
<path d="M400.619 154.681C401.345 154.208 402.175 153.919 403.038 153.839C403.901 153.759 404.77 153.892 405.57 154.224" stroke="white" stroke-width="0.704583" stroke-miterlimit="10"/>
<path d="M87.9185 167.563L88.147 166.944L87.5757 167.182C87.513 167.213 87.465 167.267 87.4418 167.333C87.4187 167.399 87.4223 167.471 87.4519 167.535C87.4737 167.601 87.521 167.657 87.5834 167.689C87.6457 167.721 87.7182 167.727 87.7852 167.706C87.8169 167.694 87.8455 167.675 87.8686 167.65C87.8918 167.626 87.9088 167.596 87.9185 167.563Z" fill="#5E3C69"/>
<path d="M79.6452 141.037C82.0222 142.053 84.1524 143.57 85.8913 145.483C88.2335 148.101 89.1952 151.52 89.8331 154.9C90.1473 156.585 90.3758 158.289 90.6805 159.975C90.9281 161.336 91.8898 163.45 91.3375 164.735C91.1833 165.125 90.9234 165.465 90.5871 165.715C90.2507 165.966 89.8511 166.118 89.4332 166.154C89.6867 165.868 89.8625 165.522 89.9438 165.149C90.025 164.776 90.0089 164.388 89.897 164.023C89.7852 163.658 89.5813 163.327 89.305 163.064C89.0287 162.8 88.6893 162.612 88.3192 162.517C86.5655 162.111 84.7676 161.929 82.9682 161.974C80.2424 161.951 77.5574 161.31 75.115 160.099C72.6726 158.889 70.5364 157.14 68.867 154.985C68.2424 157.825 66.5343 160.308 64.1063 161.908C63.4857 162.23 62.9604 162.709 62.5829 163.298C62.3542 164.165 62.4738 165.088 62.9161 165.868C63.7633 168.193 64.0068 170.695 63.6238 173.14C63.2408 175.584 62.2439 177.892 60.7262 179.846C61.7868 175.779 61.3229 171.464 59.4218 167.716C59.2 167.151 58.8664 166.638 58.441 166.206C58.0155 165.774 57.5071 165.432 56.9462 165.202C55.7465 164.831 54.1469 165.707 54.4135 166.849C52.5854 161.965 51.2239 156.728 52.2617 151.691C54.6325 140.208 69.2955 136.495 79.6452 141.037Z" fill="#C7857C"/>
<path d="M58.135 265.796C58.135 265.796 50.3085 273.918 49.4135 291.066C48.2804 312.432 84.9092 406.598 84.9092 406.598C84.9092 406.598 97.2394 408.703 99.3532 405.094C101.467 401.485 81.9005 293.779 81.9005 293.779L103.562 285.058C103.562 285.058 102.657 273.318 96.9443 267.3C93.0214 273.337 58.135 265.796 58.135 265.796Z" fill="#263238"/>
<g style="mix-blend-mode:multiply" opacity="0.32">
<path d="M88.1374 230.966C91.9053 230.023 95.5725 228.716 99.087 227.062C98.9015 228.041 98.5023 228.966 97.9181 229.773C97.3338 230.579 96.5788 231.247 95.7069 231.728C94.0609 232.508 92.304 233.028 90.4987 233.27C70.2848 237.822 60.9824 239.716 63.1533 212.466C63.5246 207.963 71.1132 231.757 73.1412 232.461C77.7115 233.956 83.5195 232.118 88.1374 230.966Z" fill="#E29EA6"/>
</g>
<path d="M58.1357 265.796L59.8401 260.007C59.8401 260.007 85.824 264.434 97.0783 261.749C98.3446 260.321 96.945 267.3 96.945 267.3C96.945 267.3 98.0304 270.623 82.9771 269.671C74.5856 269.235 66.2613 267.936 58.1357 265.796V265.796Z" fill="#263238"/>
<path d="M67.9228 263.33C72.1979 255.712 66.9707 212.628 66.9707 212.628L97.4392 207.544C97.8845 207.471 98.3407 207.5 98.7733 207.628C99.206 207.756 99.604 207.981 99.9374 208.285C100.271 208.589 100.531 208.965 100.699 209.384C100.866 209.803 100.937 210.255 100.905 210.705L97.0964 261.749L90.1267 264.91C90.1267 264.91 71.5886 267.51 67.9228 263.33Z" fill="#263238"/>
<path d="M72.3592 218.96C71.2452 211.514 55.5635 193.252 55.5635 193.252L60.0004 191.986C60.0004 191.986 77.4246 208.943 78.0911 219.874C78.1673 221.816 72.6353 220.845 72.3592 218.96Z" fill="#263238"/>
<path d="M95.6498 213.095C93.9073 202.621 80.2822 189.967 80.2822 189.967L84.2431 189.805C84.2431 189.805 99.9249 204.087 100.563 214.999C100.677 216.903 95.964 214.98 95.6498 213.095Z" fill="#263238"/>
<path d="M76.4735 220.702C76.4735 220.702 75.5214 230.052 78.5397 231.319C81.558 232.585 88.3658 233.699 88.3658 233.699L93.593 230.367L93.7454 217.989L76.4735 220.702Z" fill="white"/>
<path d="M73.5405 216.113C74.3714 216.113 75.0449 215.439 75.0449 214.608C75.0449 213.778 74.3714 213.104 73.5405 213.104C72.7097 213.104 72.0361 213.778 72.0361 214.608C72.0361 215.439 72.7097 216.113 73.5405 216.113Z" fill="white"/>
<path d="M96.4399 212.228C97.2708 212.228 97.9443 211.555 97.9443 210.724C97.9443 209.893 97.2708 209.22 96.4399 209.22C95.6091 209.22 94.9355 209.893 94.9355 210.724C94.9355 211.555 95.6091 212.228 96.4399 212.228Z" fill="white"/>
<path d="M56.2404 195.623L71.7127 243.363L103.8 250.59C103.8 250.59 103.486 259.502 101.162 260.397C98.8391 261.292 58.2589 255.294 56.7165 252.904C55.5929 251.152 49.4707 227.377 46.2429 214.818C45.0337 210.057 47.8901 201.488 51.4416 198.051L56.2404 195.623Z" fill="#50CD89"/>
<g filter="url(#filter0_d_1201_79)">
<path d="M99.5534 280.57C93.6644 316.606 97.3855 353.558 110.341 387.696L347.643 382.478L449.684 380.24C466.689 379.869 483.704 379.593 500.709 379.117C509.669 378.869 508.84 375.851 505.317 368.643C501.794 361.436 498.424 354.152 496.215 346.411C493.216 335.937 492.34 324.607 495.691 314.257C498.252 306.335 503.137 299.375 506.165 291.625C509.776 282.45 510.687 272.433 508.789 262.757C506.891 253.081 502.263 244.15 495.453 237.02C488.674 229.888 484.932 228.898 475.458 229.107L415.978 230.364L297.018 232.887L236.357 234.182C205.612 234.83 174.687 235.468 144.123 231.326C136.506 230.298 128.889 228.984 121.272 227.289C112.455 225.299 108.465 221.262 107.532 231.707C106.028 248.322 102.219 264.213 99.5534 280.57Z" fill="white"/>
</g>
<path d="M102.096 252.894C100.554 254.684 99.8108 256.836 101.668 258.683C103.524 260.53 107.447 259.207 109.446 258.607L117.34 256.236C119.035 255.731 121.082 254.741 120.977 252.98C120.873 252.448 120.647 251.947 120.317 251.517C119.986 251.088 119.56 250.741 119.073 250.504C116.423 248.79 113.245 248.088 110.12 248.526C106.995 248.965 104.132 250.516 102.058 252.894H102.096Z" fill="#FFB29D"/>
<path d="M439.857 224.248C442.332 224.248 444.732 224.724 446.522 226.657C449.454 229.847 447.007 234.741 444.941 237.131C443.532 238.778 441.856 240.939 440.019 242.13C437.724 243.605 434.763 244.577 432.287 245.814C430.869 246.452 429.383 243.615 429.202 242.634C429.006 240.974 429.172 239.292 429.688 237.702C430.421 235.017 431.906 231.323 434.449 229.895C433.973 229.78 428.403 230.152 427.993 229.895C429.426 228.554 430.936 227.298 432.516 226.134C434.759 224.882 437.288 224.233 439.857 224.248V224.248Z" fill="#FFB29D"/>
<path d="M485.009 284.496V284.401C485.009 277.564 492.074 269.09 499.291 272.089C501.223 272.807 502.861 274.147 503.947 275.898C505.566 278.602 504.566 279.23 502.252 281.154C498.653 284.172 485.104 296.15 485.009 284.496Z" fill="#FFB29D"/>
<g style="mix-blend-mode:multiply" opacity="0.32">
<path d="M528.367 216.57C527.472 221.217 530.805 247.515 527.301 249.295C516.275 254.903 506.802 262.339 504.24 264.863C503.707 265.384 503.357 266.065 503.243 266.803C503.13 267.541 503.259 268.295 503.611 268.953C503.963 269.611 504.519 270.137 505.196 270.452C505.873 270.767 506.633 270.854 507.363 270.699C515.342 269.1 524.188 264.291 528.996 259.769C535.813 253.351 539.555 244.058 540.25 234.708C540.774 227.815 540.012 219.979 537.489 213.495C534.318 205.354 529.662 209.905 528.367 216.57Z" fill="#E29EA6"/>
</g>
<path d="M532.787 208.839L534.196 248.076L497.139 271.147C497.139 271.147 501.528 279.154 504.861 279.116C508.193 279.078 554.248 259.464 555 255.731C555.752 251.999 549.611 195.385 549.611 195.385L532.787 208.839Z" fill="#F1416C"/>
<path d="M225.403 354.467H155.401C148.103 354.467 142.202 348.566 142.202 341.269V271.267C142.202 263.969 148.103 258.068 155.401 258.068H225.403C232.701 258.068 238.602 263.969 238.602 271.267V341.269C238.647 348.566 232.701 354.467 225.403 354.467Z" fill="#3D3D3D"/>
<path d="M286.982 330.818L277.072 315.863L267.162 330.818H254.594L270.765 306.403L254.954 282.393H267.567L277.162 296.853L286.712 282.393H299.28L283.469 306.313L299.64 330.818H286.982Z" fill="#3A3A3A"/>
<path d="M333.246 317.169H308.02C309.462 320.998 313.021 322.89 317.705 322.89C320.859 322.89 323.652 322.124 326.219 320.142L330.994 325.142C328.066 328.836 323.021 331.494 316.534 331.494C306.714 331.494 297.84 324.827 297.84 313.16C297.84 301.178 306.759 294.691 315.904 294.691C324.913 294.691 335.499 300.952 333.246 317.169ZM307.795 309.601H323.967C323.201 305.502 319.597 303.52 316.039 303.52C312.525 303.52 308.966 305.367 307.795 309.601Z" fill="#3A3A3A"/>
<path d="M372.618 309.962V330.818H362.033V311.809C362.033 307.394 359.78 304.106 355.411 304.106C351.131 304.106 348.879 307.394 348.879 311.809V330.818H338.293V295.367H348.879V299.871C350.861 296.853 354.33 294.691 359.375 294.691C366.537 294.691 372.618 299.105 372.618 309.962Z" fill="#3A3A3A"/>
<path d="M412.707 317.169H387.481C388.923 320.998 392.481 322.89 397.166 322.89C400.32 322.89 403.112 322.124 405.68 320.142L410.455 325.142C407.527 328.836 402.482 331.494 395.995 331.494C386.175 331.494 377.301 324.827 377.301 313.16C377.301 301.178 386.22 294.691 395.364 294.691C404.374 294.691 414.96 300.952 412.707 317.169ZM387.256 309.601H403.428C402.662 305.502 399.058 303.52 395.5 303.52C391.986 303.52 388.427 305.367 387.256 309.601Z" fill="#3A3A3A"/>
<path d="M438.427 321.358V329.422C437.076 330.773 434.057 331.269 431.625 331.269C425.093 331.269 420.318 328.07 420.318 319.962V303.79H415.048V295.366H420.318V286.267H430.904V295.321H438.337V303.7H430.904V318.16C430.904 319.917 431.94 321.854 435.139 321.854C435.904 321.899 437.121 321.764 438.427 321.358Z" fill="#3A3A3A"/>
<path d="M465.007 321.358V329.422C463.656 330.773 460.638 331.269 458.205 331.269C451.673 331.269 446.898 328.07 446.898 319.962V303.79H441.628V295.366H446.898V286.267H457.484V295.321H464.917V303.7H457.484V318.16C457.484 319.917 458.52 321.854 461.719 321.854C462.484 321.899 463.701 321.764 465.007 321.358Z" fill="#3A3A3A"/>
<path d="M201.239 296.512L200.157 295.431C197.41 292.683 197.41 288.269 200.157 285.566L214.077 271.692C216.825 268.944 221.239 268.944 223.942 271.692L225.023 272.773C227.771 275.521 227.771 279.935 225.023 282.638L211.149 296.512C208.401 299.215 203.986 299.215 201.239 296.512Z" fill="#D91D57" stroke="#D91D57" stroke-width="2.00763" stroke-miterlimit="10"/>
<path d="M156.912 340.839L155.831 339.757C153.084 337.01 153.084 332.595 155.831 329.892L169.706 316.018C172.454 313.27 176.868 313.27 179.571 316.018L180.652 317.099C183.4 319.847 183.4 324.261 180.652 326.964L166.778 340.839C164.075 343.541 159.66 343.541 156.912 340.839Z" fill="#1EE2AA" stroke="#1EE2AA" stroke-width="2.00763" stroke-miterlimit="10"/>
<path d="M182.994 306.334C182.994 310.414 186.302 313.722 190.382 313.722C194.462 313.722 197.77 310.414 197.77 306.334C197.77 302.254 194.462 298.946 190.382 298.946C186.302 298.946 182.994 302.254 182.994 306.334Z" fill="#D117E0" stroke="#D117E0" stroke-width="2.00763" stroke-miterlimit="10"/>
<path d="M200.202 317.099L201.284 316.018C204.031 313.27 208.446 313.27 211.149 316.018L225.023 329.892C227.771 332.64 227.771 337.055 225.023 339.757L223.942 340.839C221.194 343.586 216.78 343.586 214.077 340.839L200.202 326.964C197.455 324.216 197.455 319.802 200.202 317.099Z" fill="#FBD104" stroke="#FBD104" stroke-width="2.00763" stroke-miterlimit="10"/>
<path d="M155.876 272.773L156.957 271.692C159.705 268.944 164.12 268.944 166.823 271.692L180.697 285.566C183.445 288.314 183.445 292.728 180.697 295.431L179.616 296.512C176.868 299.26 172.453 299.26 169.751 296.512L155.876 282.638C153.128 279.89 153.128 275.476 155.876 272.773Z" fill="#24B8E0" stroke="#24B8E0" stroke-width="2.00763" stroke-miterlimit="10"/>
<path d="M195.508 37.532C195.028 37.532 194.332 37.16 193.42 36.416C192.532 35.648 192.088 34.892 192.088 34.148C192.088 32.396 192.34 29.372 192.844 25.076C193.348 20.78 193.6 16.652 193.6 12.692C193.6 11.684 193.912 11.18 194.536 11.18C195.4 11.18 196.432 11.66 197.632 12.62C198.856 13.58 199.468 14.54 199.468 15.5C199.468 15.836 199.072 17.888 198.28 21.656C197.488 25.4 197.032 28.412 196.912 30.692C198.064 28.364 199.42 26.42 200.98 24.86C202.564 23.3 203.86 22.52 204.868 22.52C205.588 22.52 206.056 24.116 206.272 27.308C206.368 28.508 206.56 29.612 206.848 30.62C207.136 31.604 207.532 32.096 208.036 32.096C208.972 32.096 209.8 31.1 210.52 29.108C211.264 27.092 211.636 25.016 211.636 22.88C211.636 18.248 210.364 15.932 207.82 15.932C207.076 15.932 206.38 15.548 205.732 14.78C205.108 14.012 204.796 13.328 204.796 12.728C204.796 11.648 205.456 11.108 206.776 11.108C208.552 11.108 210.1 11.444 211.42 12.116C212.764 12.764 213.808 13.664 214.552 14.816C216.04 17.096 216.784 19.904 216.784 23.24C216.784 25.496 216.388 27.728 215.596 29.936C214.804 32.12 213.7 33.932 212.284 35.372C210.892 36.812 209.404 37.532 207.82 37.532C204.892 37.532 203.224 35.048 202.816 30.08L201.7 31.664C199.06 35.576 196.996 37.532 195.508 37.532ZM235.294 25.724C235.294 26.9 234.49 27.956 232.882 28.892C231.298 29.828 229.666 30.296 227.986 30.296C226.306 30.296 224.926 30.176 223.846 29.936C223.63 30.584 223.522 31.232 223.522 31.88C223.522 32.528 223.63 32.996 223.846 33.284C224.062 33.548 224.602 33.68 225.466 33.68C227.266 33.68 228.802 33.512 230.074 33.176C231.37 32.84 232.042 32.672 232.09 32.672C233.074 32.672 233.566 32.996 233.566 33.644C233.566 34.58 232.786 35.468 231.226 36.308C229.69 37.148 227.902 37.568 225.862 37.568C223.846 37.568 222.226 36.932 221.002 35.66C219.778 34.388 219.166 32.888 219.166 31.16C219.166 29.408 219.67 27.584 220.678 25.688C221.71 23.792 222.994 22.208 224.53 20.936C226.066 19.64 227.59 18.992 229.102 18.992C230.638 18.992 232.054 19.748 233.35 21.26C234.646 22.748 235.294 24.236 235.294 25.724ZM231.118 25.148C231.118 24.908 230.866 24.56 230.362 24.104C229.858 23.648 229.378 23.42 228.922 23.42C228.49 23.42 227.926 23.744 227.23 24.392C226.534 25.016 225.874 25.832 225.25 26.84C225.466 26.864 225.778 26.876 226.186 26.876C229.474 26.876 231.118 26.3 231.118 25.148ZM241.82 8.912C242.396 8.912 243.14 9.44 244.052 10.496C244.964 11.552 245.42 12.56 245.42 13.52C245.42 14.48 245.276 16.196 244.988 18.668C244.7 21.116 244.4 23.072 244.088 24.536C242.096 33.224 240.704 37.568 239.912 37.568C239.384 37.568 238.724 37.148 237.932 36.308C237.164 35.444 236.78 34.736 236.78 34.184C236.78 34.136 237.104 32.888 237.752 30.44C238.4 27.992 239.048 24.848 239.696 21.008C240.368 17.144 240.704 13.46 240.704 9.956C240.704 9.26 241.076 8.912 241.82 8.912ZM246.306 31.916C246.306 30.236 246.834 28.388 247.89 26.372C248.946 24.356 250.326 22.628 252.03 21.188C253.758 19.748 255.45 19.028 257.106 19.028C257.946 19.028 258.81 19.58 259.698 20.684C260.586 21.764 261.03 22.736 261.03 23.6C261.03 24.224 260.742 24.536 260.166 24.536C259.878 24.536 259.482 24.404 258.978 24.14C258.474 23.876 257.958 23.744 257.43 23.744C256.902 23.744 256.146 24.2 255.162 25.112C254.202 26 253.338 27.08 252.57 28.352C251.826 29.6 251.454 30.584 251.454 31.304C251.454 32.024 251.586 32.492 251.85 32.708C252.138 32.924 252.81 33.032 253.866 33.032C254.946 33.032 255.918 32.936 256.782 32.744C257.67 32.552 258.318 32.36 258.726 32.168C259.158 31.952 259.542 31.844 259.878 31.844C260.55 31.844 260.886 32.132 260.886 32.708C260.886 33.764 259.962 34.844 258.114 35.948C256.266 37.028 254.418 37.568 252.57 37.568C251.394 37.568 250.05 36.92 248.538 35.624C247.05 34.304 246.306 33.068 246.306 31.916ZM268.996 33.896C270.292 33.32 271.42 32.156 272.38 30.404C273.34 28.652 273.82 27.008 273.82 25.472C273.82 23.936 273.604 22.88 273.172 22.304C272.14 22.904 271.108 24.164 270.076 26.084C269.068 28.004 268.564 29.696 268.564 31.16C268.564 32.6 268.708 33.512 268.996 33.896ZM263.74 31.52C263.74 28.52 264.664 25.676 266.512 22.988C268.384 20.3 270.232 18.956 272.056 18.956C273.88 18.956 275.416 19.604 276.664 20.9C277.912 22.172 278.536 23.72 278.536 25.544C278.536 27.344 278.104 29.18 277.24 31.052C276.376 32.924 275.164 34.484 273.604 35.732C272.044 36.956 270.376 37.568 268.6 37.568C267.28 37.568 266.14 36.98 265.18 35.804C264.22 34.628 263.74 33.2 263.74 31.52ZM304.566 18.992C305.502 18.992 306.282 19.616 306.906 20.864C307.53 22.112 307.842 23.252 307.842 24.284C307.842 25.316 307.638 26.852 307.23 28.892C306.846 30.908 306.222 32.864 305.358 34.76C304.518 36.632 303.606 37.568 302.622 37.568C301.83 37.568 301.434 37.028 301.434 35.948C301.434 34.868 301.746 33.104 302.37 30.656C302.994 28.208 303.306 26.6 303.306 25.832C303.306 25.064 303.186 24.68 302.946 24.68C302.442 24.68 301.842 25.232 301.146 26.336C300.45 27.44 299.61 28.916 298.626 30.764C297.666 32.612 297.066 33.8 296.826 34.328C296.586 34.856 296.382 35.276 296.214 35.588C296.07 35.9 295.902 36.224 295.71 36.56C294.942 37.832 293.922 37.832 292.65 36.56C292.002 35.912 291.678 35.324 291.678 34.796C291.678 34.7 291.87 33.788 292.254 32.06C292.662 30.308 292.866 28.316 292.866 26.084C292.866 25.148 292.758 24.68 292.542 24.68C292.254 24.68 291.918 24.968 291.534 25.544C291.15 26.12 290.562 27.164 289.77 28.676C288.978 30.188 288.294 31.436 287.718 32.42C285.702 35.852 284.166 37.568 283.11 37.568C282.582 37.568 281.922 37.124 281.13 36.236C280.362 35.348 279.978 34.676 279.978 34.22C279.978 33.74 280.242 32.612 280.77 30.836C281.322 29.036 281.67 27.128 281.813 25.112C281.982 23.096 282.126 21.524 282.246 20.396C282.39 19.268 282.678 18.704 283.11 18.704C284.022 18.704 284.898 19.088 285.738 19.856C286.602 20.6 287.034 21.284 287.034 21.908C287.034 23.324 286.518 25.796 285.486 29.324C287.166 25.316 288.582 22.604 289.734 21.188C290.958 19.724 292.134 18.992 293.262 18.992C293.886 18.992 294.654 19.568 295.566 20.72C296.502 21.872 296.97 22.952 296.97 23.96C296.97 24.944 296.958 25.808 296.934 26.552C297.678 24.68 298.806 22.952 300.318 21.368C301.83 19.784 303.246 18.992 304.566 18.992ZM325.962 25.724C325.962 26.9 325.158 27.956 323.55 28.892C321.966 29.828 320.334 30.296 318.654 30.296C316.974 30.296 315.594 30.176 314.514 29.936C314.298 30.584 314.19 31.232 314.19 31.88C314.19 32.528 314.298 32.996 314.514 33.284C314.73 33.548 315.27 33.68 316.134 33.68C317.934 33.68 319.47 33.512 320.742 33.176C322.038 32.84 322.71 32.672 322.758 32.672C323.742 32.672 324.234 32.996 324.234 33.644C324.234 34.58 323.454 35.468 321.894 36.308C320.358 37.148 318.57 37.568 316.53 37.568C314.514 37.568 312.894 36.932 311.67 35.66C310.446 34.388 309.834 32.888 309.834 31.16C309.834 29.408 310.338 27.584 311.346 25.688C312.378 23.792 313.662 22.208 315.198 20.936C316.734 19.64 318.258 18.992 319.77 18.992C321.306 18.992 322.722 19.748 324.018 21.26C325.314 22.748 325.962 24.236 325.962 25.724ZM321.786 25.148C321.786 24.908 321.534 24.56 321.03 24.104C320.526 23.648 320.046 23.42 319.59 23.42C319.158 23.42 318.594 23.744 317.898 24.392C317.202 25.016 316.542 25.832 315.918 26.84C316.134 26.864 316.446 26.876 316.854 26.876C320.142 26.876 321.786 26.3 321.786 25.148ZM349.183 16.292C346.591 16.436 345.175 16.508 344.935 16.508C344.359 16.508 343.783 16.16 343.207 15.464C342.631 14.744 342.343 14 342.343 13.232C342.343 12.056 345.763 11.468 352.603 11.468C356.107 11.468 358.687 11.828 360.343 12.548C361.999 13.268 362.827 14.144 362.827 15.176C362.827 15.488 362.647 15.788 362.287 16.076C361.927 16.34 361.471 16.472 360.919 16.472C360.367 16.472 359.359 16.436 357.895 16.364C356.431 16.292 355.099 16.244 353.899 16.22C353.995 16.508 354.043 16.844 354.043 17.228C354.043 17.612 353.899 18.368 353.611 19.496C353.347 20.624 352.963 22.196 352.459 24.212C351.955 26.204 351.403 28.628 350.803 31.484C350.203 34.316 349.783 36.008 349.543 36.56C349.327 37.088 349.111 37.352 348.895 37.352C348.391 37.352 347.755 36.896 346.987 35.984C346.243 35.048 345.871 34.292 345.871 33.716C345.871 33.14 346.363 30.764 347.347 26.588C348.331 22.388 348.943 18.956 349.183 16.292ZM365.921 33.896C367.217 33.32 368.345 32.156 369.305 30.404C370.265 28.652 370.745 27.008 370.745 25.472C370.745 23.936 370.529 22.88 370.097 22.304C369.065 22.904 368.033 24.164 367.001 26.084C365.993 28.004 365.489 29.696 365.489 31.16C365.489 32.6 365.633 33.512 365.921 33.896ZM360.665 31.52C360.665 28.52 361.589 25.676 363.437 22.988C365.309 20.3 367.157 18.956 368.981 18.956C370.805 18.956 372.341 19.604 373.589 20.9C374.837 22.172 375.461 23.72 375.461 25.544C375.461 27.344 375.029 29.18 374.165 31.052C373.301 32.924 372.089 34.484 370.529 35.732C368.969 36.956 367.301 37.568 365.525 37.568C364.205 37.568 363.065 36.98 362.105 35.804C361.145 34.628 360.665 33.2 360.665 31.52Z" fill="#F1416C"/>
<defs>
<filter id="filter0_d_1201_79" x="86.8359" y="218.833" width="432.919" height="182.862" filterUnits="userSpaceOnUse" color-interpolation-filters="sRGB">
<feFlood flood-opacity="0" result="BackgroundImageFix"/>
<feColorMatrix in="SourceAlpha" type="matrix" values="0 0 0 0 0 0 0 0 0 0 0 0 0 0 0 0 0 0 127 0" result="hardAlpha"/>
<feOffset dy="4"/>
<feGaussianBlur stdDeviation="5"/>
<feComposite in2="hardAlpha" operator="out"/>
<feColorMatrix type="matrix" values="0 0 0 0 0 0 0 0 0 0 0 0 0 0 0 0 0 0 0.1 0"/>
<feBlend mode="normal" in2="BackgroundImageFix" result="effect1_dropShadow_1201_79"/>
<feBlend mode="normal" in="SourceGraphic" in2="effect1_dropShadow_1201_79" result="shape"/>
</filter>
</defs>
</svg>
