<svg width="173" height="53" viewBox="0 0 173 53" fill="none" xmlns="http://www.w3.org/2000/svg">
<path d="M45.8473 51.5929H9.40395C5.60484 51.5929 2.53271 48.5208 2.53271 44.7217V8.27831C2.53271 4.4792 5.60484 1.40707 9.40395 1.40707H45.8473C49.6464 1.40707 52.7186 4.4792 52.7186 8.27831V44.7217C52.742 48.5208 49.6464 51.5929 45.8473 51.5929Z" fill="#3D3D3D"/>
<path d="M77.9055 39.2812L72.7462 31.4954L67.5869 39.2812H61.0439L69.463 26.5706L61.2316 14.071H67.7979L72.7931 21.5989L77.7647 14.071H84.3077L76.0763 26.5237L84.4953 39.2812H77.9055Z" fill="#3A3A3A"/>
<path d="M101.99 32.1762H88.8576C89.6081 34.1696 91.4607 35.1546 93.8997 35.1546C95.5413 35.1546 96.9952 34.7559 98.332 33.724L100.818 36.3271C99.2935 38.2501 96.6669 39.6338 93.2899 39.6338C88.1775 39.6338 83.5576 36.163 83.5576 30.0891C83.5576 23.851 88.201 20.474 92.9616 20.474C97.6519 20.474 103.163 23.7338 101.99 32.1762ZM88.7404 28.2364H97.1594C96.7607 26.1023 94.8846 25.0705 93.032 25.0705C91.2028 25.0705 89.3501 26.032 88.7404 28.2364Z" fill="#3A3A3A"/>
<path d="M122.487 28.424V39.282H116.976V29.3855C116.976 27.0873 115.803 25.3754 113.529 25.3754C111.301 25.3754 110.128 27.0873 110.128 29.3855V39.282H104.617V20.8258H110.128V23.1709C111.16 21.5997 112.966 20.474 115.592 20.474C119.321 20.474 122.487 22.7723 122.487 28.424Z" fill="#3A3A3A"/>
<path d="M143.358 32.1762H130.225C130.976 34.1696 132.828 35.1546 135.267 35.1546C136.909 35.1546 138.363 34.7559 139.7 33.724L142.185 36.3271C140.661 38.2501 138.035 39.6338 134.658 39.6338C129.545 39.6338 124.925 36.163 124.925 30.0891C124.925 23.851 129.569 20.474 134.329 20.474C139.02 20.474 144.531 23.7338 143.358 32.1762ZM130.108 28.2364H138.527C138.128 26.1023 136.252 25.0705 134.4 25.0705C132.57 25.0705 130.718 26.032 130.108 28.2364Z" fill="#3A3A3A"/>
<path d="M156.749 34.357V38.5548C156.045 39.2583 154.474 39.5163 153.208 39.5163C149.807 39.5163 147.321 37.8512 147.321 33.63V25.211H144.578V20.8256H147.321V16.0884H152.833V20.8021H156.702V25.1641H152.833V32.6919C152.833 33.6065 153.372 34.615 155.037 34.615C155.436 34.6384 156.069 34.5681 156.749 34.357Z" fill="#3A3A3A"/>
<path d="M170.585 34.357V38.5548C169.881 39.2583 168.31 39.5163 167.044 39.5163C163.643 39.5163 161.157 37.8512 161.157 33.63V25.211H158.414V20.8256H161.157V16.0884H166.668V20.8021H170.538V25.1641H166.668V32.6919C166.668 33.6065 167.208 34.615 168.873 34.615C169.272 34.6384 169.905 34.5681 170.585 34.357Z" fill="#3A3A3A"/>
<path d="M22.5605 20.8731L21.9977 21.436C20.5671 22.8665 18.2689 22.8665 16.8618 21.436L9.63882 14.1895C8.20829 12.759 8.20829 10.4607 9.63882 9.05367L10.2016 8.49084C11.6322 7.06031 13.9304 7.06031 15.3375 8.49084L22.5605 15.7138C23.9676 17.1444 23.9676 19.4426 22.5605 20.8731Z" fill="#D91D57" stroke="#D91D57" stroke-width="1.09068" stroke-miterlimit="10"/>
<path d="M45.6372 43.9486L45.0743 44.5115C43.6438 45.942 41.3456 45.942 39.9385 44.5115L32.7155 37.2884C31.2849 35.8579 31.2849 33.5597 32.7155 32.1526L33.2783 31.5898C34.7088 30.1592 37.0071 30.1592 38.4141 31.5898L45.6372 38.8128C47.0442 40.2199 47.0442 42.5181 45.6372 43.9486Z" fill="#1EE2AA" stroke="#1EE2AA" stroke-width="1.09068" stroke-miterlimit="10"/>
<path d="M27.6732 30.3705C29.7973 30.3705 31.5192 28.6486 31.5192 26.5245C31.5192 24.4004 29.7973 22.6784 27.6732 22.6784C25.5491 22.6784 23.8271 24.4004 23.8271 26.5245C23.8271 28.6486 25.5491 30.3705 27.6732 30.3705Z" fill="#D117E0" stroke="#D117E0" stroke-width="1.09068" stroke-miterlimit="10"/>
<path d="M33.2783 21.4125L32.7155 20.8497C31.2849 19.4192 31.2849 17.1209 32.7155 15.7138L39.9385 8.49084C41.369 7.06031 43.6672 7.06031 45.0743 8.49084L45.6372 9.05367C47.0677 10.4842 47.0677 12.7824 45.6372 14.1895L38.4141 21.4125C36.9836 22.8431 34.6854 22.8431 33.2783 21.4125Z" fill="#FBD104" stroke="#FBD104" stroke-width="1.09068" stroke-miterlimit="10"/>
<path d="M10.2016 44.4896L9.63882 43.9268C8.20829 42.4962 8.20829 40.198 9.63882 38.7909L16.8618 31.5679C18.2924 30.1374 20.5906 30.1374 21.9977 31.5679L22.5605 32.1308C23.991 33.5613 23.991 35.8595 22.5605 37.2666L15.3375 44.4896C13.907 45.9201 11.6087 45.9201 10.2016 44.4896Z" fill="#24B8E0" stroke="#24B8E0" stroke-width="1.09068" stroke-miterlimit="10"/>
</svg>
