<svg width="14" height="14" viewBox="0 0 14 14" fill="none" xmlns="http://www.w3.org/2000/svg">
<path d="M2.8 1.36585V0H4.2V1.36585H13.3056C13.6892 1.36585 14 1.66976 14 2.044V12.9804C13.9987 13.1597 13.9252 13.3314 13.7952 13.4583C13.6653 13.5852 13.4894 13.6571 13.3056 13.6585H0.6944C0.51017 13.6584 0.333548 13.5868 0.203343 13.4597C0.0731374 13.3325 -9.34186e-08 13.1601 0 12.9804V2.044C0.00128103 1.86465 0.0748302 1.69299 0.204759 1.5661C0.334688 1.43921 0.510566 1.36728 0.6944 1.36585H2.8ZM1.4 2.73171V12.2927H12.6V2.73171H1.4ZM4.9 9.56098C4.34305 9.56098 3.8089 9.34512 3.41508 8.9609C3.02125 8.57668 2.8 8.05557 2.8 7.5122C2.8 6.96882 3.02125 6.44771 3.41508 6.06349C3.8089 5.67927 4.34305 5.46341 4.9 5.46341C5.45696 5.46341 5.9911 5.67927 6.38493 6.06349C6.77875 6.44771 7 6.96882 7 7.5122C7 8.05557 6.77875 8.57668 6.38493 8.9609C5.9911 9.34512 5.45696 9.56098 4.9 9.56098ZM8.4 5.46341H11.2V6.82927H8.4V5.46341ZM8.4 8.19512H11.2V9.56098H8.4V8.19512Z" fill="#7B7E8E"/>
</svg>
