<svg width="16" height="14" viewBox="0 0 16 14" fill="none" xmlns="http://www.w3.org/2000/svg">
<path d="M1.55556 1.51762V12.1409H14V1.51762H1.55556ZM0.777778 0H14.7778C14.9841 0 15.1819 0.0799455 15.3278 0.22225C15.4736 0.364554 15.5556 0.557559 15.5556 0.758808V12.8997C15.5556 13.101 15.4736 13.294 15.3278 13.4363C15.1819 13.5786 14.9841 13.6585 14.7778 13.6585H0.777778C0.571498 13.6585 0.373667 13.5786 0.227806 13.4363C0.0819442 13.294 0 13.101 0 12.8997V0.758808C0 0.557559 0.0819442 0.364554 0.227806 0.22225C0.373667 0.0799455 0.571498 0 0.777778 0ZM3.11111 3.03523H4.66667V4.55285H3.11111V3.03523ZM3.11111 6.07046H4.66667V7.58808H3.11111V6.07046ZM3.11111 9.10569H12.4444V10.6233H3.11111V9.10569ZM7 6.07046H8.55556V7.58808H7V6.07046ZM7 3.03523H8.55556V4.55285H7V3.03523ZM10.8889 3.03523H12.4444V4.55285H10.8889V3.03523ZM10.8889 6.07046H12.4444V7.58808H10.8889V6.07046Z" fill="#7B7E8E"/>
</svg>
