<svg width="16" height="14" viewBox="0 0 16 14" fill="none" xmlns="http://www.w3.org/2000/svg">
<path fill-rule="evenodd" clip-rule="evenodd" d="M1.49699 13.0399H4.08253C4.26274 13.0399 4.42727 12.9486 4.51345 12.7963L7.99218 6.90283H4.55263C4.37242 6.90283 4.20789 6.9942 4.12171 7.14649L1.06607 12.3166C0.878032 12.6364 1.11308 13.0399 1.49699 13.0399Z" stroke="#7B7E8E" stroke-width="1.2" stroke-miterlimit="10"/>
<path d="M9.80199 9.94092H5.69647L4.10597 7.55766C3.98061 7.24547 4.22349 6.90283 4.56823 6.90283H7.99211" stroke="#7B7E8E" stroke-width="1.2" stroke-miterlimit="10"/>
<path d="M11.6825 6.76611L14.934 12.3169C15.1221 12.6367 14.887 13.0326 14.5031 13.0326H11.9097C11.7295 13.0326 11.565 12.9413 11.4788 12.789L9.67676 9.73567" stroke="#7B7E8E" stroke-width="1.2" stroke-miterlimit="10"/>
<path d="M8.00815 6.89518L6.25311 3.92562C6.16693 3.78095 6.16693 3.59821 6.25311 3.44592L7.57722 1.21495C7.76526 0.895148 8.24319 0.895148 8.43907 1.21495L9.95122 3.79618" stroke="#7B7E8E" stroke-width="1.2" stroke-miterlimit="10"/>
<path fill-rule="evenodd" clip-rule="evenodd" d="M6.19775 9.94112H9.46493C9.6373 9.94112 9.80184 9.84975 9.88802 9.70508L13.6175 3.58322C13.8133 3.26342 13.5783 2.85986 13.1944 2.85986H10.6872C10.507 2.85986 10.3503 2.95123 10.2563 3.10352L7.9998 6.91065L6.19775 9.94112Z" stroke="#7B7E8E" stroke-width="1.2" stroke-miterlimit="10"/>
</svg>
