<svg width="16" height="16" viewBox="0 0 16 16" fill="none" xmlns="http://www.w3.org/2000/svg">
<path d="M10.9474 8C10.9474 8.38705 10.8711 8.77032 10.723 9.12791C10.5749 9.4855 10.3578 9.81042 10.0841 10.0841C9.81042 10.3578 9.4855 10.5749 9.12791 10.723C8.77032 10.8711 8.38705 10.9474 8 10.9474C7.61295 10.9474 7.22968 10.8711 6.87209 10.723C6.5145 10.5749 6.18958 10.3578 5.9159 10.0841C5.64221 9.81042 5.42511 9.4855 5.27699 9.12791C5.12887 8.77032 5.05263 8.38705 5.05263 8C5.05263 7.21831 5.36316 6.46863 5.9159 5.9159C6.46863 5.36316 7.21831 5.05263 8 5.05263C8.78169 5.05263 9.53137 5.36316 10.0841 5.9159C10.6368 6.46863 10.9474 7.21831 10.9474 8ZM0 8C0 7.77666 0.0887216 7.56247 0.246647 7.40454C0.404572 7.24662 0.618765 7.15789 0.842105 7.15789H2.52632C2.74966 7.15789 2.96385 7.24662 3.12177 7.40454C3.2797 7.56247 3.36842 7.77666 3.36842 8C3.36842 8.22334 3.2797 8.43753 3.12177 8.59546C2.96385 8.75338 2.74966 8.8421 2.52632 8.8421H0.842105C0.618765 8.8421 0.404572 8.75338 0.246647 8.59546C0.0887216 8.43753 0 8.22334 0 8ZM12.6316 8C12.6316 7.77666 12.7203 7.56247 12.8782 7.40454C13.0362 7.24662 13.2503 7.15789 13.4737 7.15789H15.1579C15.3812 7.15789 15.5954 7.24662 15.7534 7.40454C15.9113 7.56247 16 7.77666 16 8C16 8.22334 15.9113 8.43753 15.7534 8.59546C15.5954 8.75338 15.3812 8.8421 15.1579 8.8421H13.4737C13.2503 8.8421 13.0362 8.75338 12.8782 8.59546C12.7203 8.43753 12.6316 8.22334 12.6316 8ZM12.5592 11.3684L13.7499 12.5592C13.9033 12.718 13.9882 12.9307 13.9863 13.1515C13.9843 13.3723 13.8958 13.5835 13.7396 13.7396C13.5835 13.8958 13.3723 13.9843 13.1515 13.9863C12.9307 13.9882 12.718 13.9033 12.5592 13.7499L11.3684 12.5592C11.215 12.4003 11.1301 12.1876 11.1321 11.9668C11.134 11.746 11.2225 11.5348 11.3787 11.3787C11.5348 11.2225 11.746 11.134 11.9668 11.1321C12.1876 11.1301 12.4003 11.215 12.5592 11.3684ZM2.10526 2.10526C2.26318 1.94739 2.47734 1.85871 2.70063 1.85871C2.92393 1.85871 3.13808 1.94739 3.296 2.10526L4.48674 3.296C4.56717 3.37368 4.63132 3.4666 4.67545 3.56934C4.71959 3.67208 4.74282 3.78258 4.74379 3.8944C4.74476 4.00621 4.72345 4.1171 4.68111 4.22059C4.63877 4.32408 4.57624 4.41811 4.49717 4.49717C4.41811 4.57624 4.32408 4.63877 4.22059 4.68111C4.1171 4.72345 4.00621 4.74476 3.8944 4.74379C3.78258 4.74282 3.67208 4.71959 3.56934 4.67545C3.4666 4.63132 3.37368 4.56717 3.296 4.48674L2.10526 3.296C1.94739 3.13808 1.85871 2.92393 1.85871 2.70063C1.85871 2.47734 1.94739 2.26318 2.10526 2.10526ZM8 12.6316C8.22334 12.6316 8.43753 12.7203 8.59546 12.8782C8.75338 13.0362 8.8421 13.2503 8.8421 13.4737V15.1579C8.8421 15.3812 8.75338 15.5954 8.59546 15.7534C8.43753 15.9113 8.22334 16 8 16C7.77666 16 7.56247 15.9113 7.40454 15.7534C7.24662 15.5954 7.15789 15.3812 7.15789 15.1579V13.4737C7.15789 13.2503 7.24662 13.0362 7.40454 12.8782C7.56247 12.7203 7.77666 12.6316 8 12.6316ZM8 0C8.22334 0 8.43753 0.0887216 8.59546 0.246647C8.75338 0.404572 8.8421 0.618765 8.8421 0.842105V2.52632C8.8421 2.74966 8.75338 2.96385 8.59546 3.12177C8.43753 3.2797 8.22334 3.36842 8 3.36842C7.77666 3.36842 7.56247 3.2797 7.40454 3.12177C7.24662 2.96385 7.15789 2.74966 7.15789 2.52632V0.842105C7.15789 0.618765 7.24662 0.404572 7.40454 0.246647C7.56247 0.0887216 7.77666 0 8 0ZM13.7499 2.10526C13.9078 2.26318 13.9965 2.47734 13.9965 2.70063C13.9965 2.92393 13.9078 3.13808 13.7499 3.296L12.5592 4.48674C12.4815 4.56717 12.3886 4.63132 12.2858 4.67545C12.1831 4.71959 12.0726 4.74282 11.9608 4.74379C11.8489 4.74476 11.7381 4.72345 11.6346 4.68111C11.5311 4.63877 11.4371 4.57624 11.358 4.49717C11.2789 4.41811 11.2164 4.32408 11.174 4.22059C11.1317 4.1171 11.1104 4.00621 11.1114 3.8944C11.1123 3.78258 11.1356 3.67208 11.1797 3.56934C11.2238 3.4666 11.288 3.37368 11.3684 3.296L12.5592 2.10526C12.7171 1.94739 12.9312 1.85871 13.1545 1.85871C13.3778 1.85871 13.592 1.94739 13.7499 2.10526ZM4.48674 11.3684C4.64461 11.5263 4.73329 11.7405 4.73329 11.9638C4.73329 12.1871 4.64461 12.4012 4.48674 12.5592L3.296 13.7499C3.13718 13.9033 2.92446 13.9882 2.70366 13.9863C2.48286 13.9843 2.27165 13.8958 2.11552 13.7396C1.95939 13.5835 1.87082 13.3723 1.86891 13.1515C1.86699 12.9307 1.95187 12.718 2.10526 12.5592L3.296 11.3684C3.45392 11.2106 3.66807 11.1219 3.89137 11.1219C4.11466 11.1219 4.32882 11.2106 4.48674 11.3684Z" fill="#38CAB3"/>
</svg>
