<svg width="14" height="13" viewBox="0 0 14 13" fill="none" xmlns="http://www.w3.org/2000/svg">
<path d="M13.0028 1.98681C12.8304 1.69041 12.5953 1.43527 12.314 1.23926C12.0327 1.04324 11.7119 0.911082 11.3742 0.852038C11.0364 0.792995 10.6898 0.808492 10.3587 0.897445C10.0276 0.986397 9.71986 1.14665 9.45716 1.367L8.48412 2.15343L8.2042 1.6869C8.1658 1.60192 8.10999 1.52595 8.04038 1.4639C7.97077 1.40184 7.88891 1.35508 7.8001 1.32665C7.71128 1.29821 7.61749 1.28873 7.52479 1.29882C7.43208 1.30891 7.34252 1.33834 7.2619 1.38521C7.18128 1.43208 7.1114 1.49535 7.05676 1.57093C7.00213 1.6465 6.96397 1.7327 6.94474 1.82395C6.92551 1.9152 6.92564 2.00947 6.94513 2.10067C6.96462 2.19186 7.00303 2.27795 7.05788 2.35337L7.39111 2.92653L2.7925 5.62572C2.68157 5.69312 2.59158 5.79003 2.53257 5.90564L1.47956 8.10498C1.42821 8.2014 1.40136 8.30897 1.40136 8.41821C1.40136 8.52746 1.42821 8.63503 1.47956 8.73145C1.53556 8.82624 1.61418 8.90568 1.70838 8.96267C1.80259 9.01965 1.90944 9.05241 2.01939 9.05802L4.41867 9.19798H4.452C4.57162 9.19794 4.68902 9.16572 4.79189 9.10468L9.39051 6.43881L9.73041 7.01863C9.7894 7.11812 9.87326 7.20055 9.97375 7.25781C10.0742 7.31506 10.1879 7.34518 10.3036 7.3452C10.4213 7.34637 10.5368 7.31401 10.6368 7.2519C10.7881 7.16287 10.8982 7.01774 10.9431 6.84803C10.988 6.67831 10.9642 6.49773 10.8767 6.3455L10.6635 5.83899L11.8431 5.38579C12.1635 5.26351 12.4533 5.07286 12.6924 4.82714C12.9316 4.58141 13.1143 4.28651 13.2279 3.96297C13.3414 3.63943 13.3831 3.29502 13.35 2.95373C13.3169 2.61245 13.2097 2.28248 13.0361 1.98681H13.0028ZM4.3387 7.85172L3.13906 7.78507L3.66557 6.7054L8.0909 4.11284L8.75737 5.25916L4.3387 7.85172ZM11.9564 3.51969C11.9067 3.66574 11.8245 3.7986 11.716 3.90828C11.6074 4.01795 11.4755 4.10156 11.3299 4.15283L9.93702 4.686L9.87704 4.58603L9.16392 3.3464L10.3102 2.39336C10.4241 2.29653 10.5573 2.22505 10.7009 2.18368C10.8446 2.14231 10.9954 2.132 11.1433 2.15343C11.2907 2.17947 11.4307 2.23702 11.5537 2.32214C11.6768 2.40725 11.7801 2.51793 11.8564 2.64661C11.9334 2.7772 11.9805 2.92322 11.9943 3.07418C12.0082 3.22514 11.9884 3.37728 11.9364 3.51969H11.9564ZM0.786431 9.77114C0.387689 10.2689 0.1176 10.8571 0 11.484C0 11.8375 0.140434 12.1765 0.390407 12.4265C0.640381 12.6765 0.979417 12.8169 1.33293 12.8169C1.68645 12.8169 2.02549 12.6765 2.27546 12.4265C2.52543 12.1765 2.66587 11.8375 2.66587 11.484C2.54827 10.8571 2.27818 10.2689 1.87944 9.77114C1.81802 9.68315 1.73626 9.61129 1.64111 9.56167C1.54596 9.51205 1.44024 9.48614 1.33293 9.48614C1.22562 9.48614 1.1199 9.51205 1.02476 9.56167C0.929609 9.61129 0.84785 9.68315 0.786431 9.77114Z" fill="black"/>
</svg>
