<svg width="17" height="17" viewBox="0 0 17 17" fill="none" xmlns="http://www.w3.org/2000/svg">
<path d="M4.44468 1H3C1.89543 1 1 1.89543 1 3V4.31188C1 5.41645 1.89543 6.31188 3 6.31188H4.44468C5.54925 6.31188 6.44468 5.41645 6.44468 4.31188V3C6.44468 1.89543 5.54925 1 4.44468 1Z" stroke="#7B7E8E" stroke-width="1.5" stroke-linecap="round" stroke-linejoin="round"/>
<path d="M13.4447 1H12C10.8954 1 10 1.89543 10 3V4.31188C10 5.41645 10.8954 6.31188 12 6.31188H13.4447C14.5493 6.31188 15.4447 5.41645 15.4447 4.31188V3C15.4447 1.89543 14.5493 1 13.4447 1Z" stroke="#7B7E8E" stroke-width="1.5" stroke-linecap="round" stroke-linejoin="round"/>
<path d="M13.4447 10H12C10.8954 10 10 10.8954 10 12V13.3119C10 14.4165 10.8954 15.3119 12 15.3119H13.4447C14.5493 15.3119 15.4447 14.4165 15.4447 13.3119V12C15.4447 10.8954 14.5493 10 13.4447 10Z" stroke="#7B7E8E" stroke-width="1.5" stroke-linecap="round" stroke-linejoin="round"/>
<path d="M4.44468 10H3C1.89543 10 1 10.8954 1 12V13.3119C1 14.4165 1.89543 15.3119 3 15.3119H4.44468C5.54925 15.3119 6.44468 14.4165 6.44468 13.3119V12C6.44468 10.8954 5.54925 10 4.44468 10Z" stroke="#7B7E8E" stroke-width="1.5" stroke-linecap="round" stroke-linejoin="round"/>
</svg>
