<svg width="25" height="25" viewBox="0 0 25 25" fill="none" xmlns="http://www.w3.org/2000/svg">
<path d="M15.1539 10.0815C15.748 10.0815 16.3287 9.90537 16.8227 9.57532C17.3167 9.24527 17.7017 8.77615 17.929 8.22729C18.1564 7.67842 18.2158 7.07447 18.0999 6.49181C17.984 5.90914 17.698 5.37392 17.2779 4.95385C16.8578 4.53376 16.3226 4.24769 15.7399 4.13179C15.1573 4.01589 14.5533 4.07537 14.0044 4.30272C13.4556 4.53006 12.9865 4.91506 12.6564 5.40902C12.3264 5.90298 12.1502 6.48372 12.1502 7.07781C12.1502 7.87445 12.4667 8.63846 13.03 9.20177C13.5933 9.76508 14.3573 10.0815 15.1539 10.0815ZM15.1539 6.07656C15.352 6.07656 15.5455 6.13528 15.7102 6.2453C15.8748 6.35532 16.0032 6.51169 16.079 6.69465C16.1547 6.8776 16.1746 7.07892 16.1359 7.27314C16.0973 7.46736 16.0019 7.64577 15.8619 7.78579C15.7219 7.92582 15.5435 8.02118 15.3493 8.05981C15.155 8.09844 14.9537 8.07862 14.7708 8.00284C14.5878 7.92705 14.4314 7.79872 14.3214 7.63407C14.2114 7.46941 14.1527 7.27583 14.1527 7.07781C14.1527 6.81226 14.2582 6.55759 14.4459 6.36982C14.6337 6.18205 14.8884 6.07656 15.1539 6.07656Z" fill="#C8CADC"/>
<path d="M22.1626 0.0690918H2.13774C1.60665 0.0690918 1.09731 0.280068 0.721769 0.655607C0.34623 1.03115 0.135254 1.54049 0.135254 2.07158V22.0965C0.135254 22.6276 0.34623 23.1369 0.721769 23.5124C1.09731 23.888 1.60665 24.099 2.13774 24.099H22.1626C22.6937 24.099 23.2031 23.888 23.5786 23.5124C23.9541 23.1369 24.1651 22.6276 24.1651 22.0965V2.07158C24.1651 1.54049 23.9541 1.03115 23.5786 0.655607C23.2031 0.280068 22.6937 0.0690918 22.1626 0.0690918ZM22.1626 22.0965H2.13774V16.089L7.14397 11.0828L12.7409 16.6797C13.1161 17.0527 13.6236 17.262 14.1527 17.262C14.6817 17.262 15.1892 17.0527 15.5644 16.6797L17.1564 15.0878L22.1626 20.094V22.0965ZM22.1626 17.2605L18.5682 13.666C18.193 13.293 17.6854 13.0837 17.1564 13.0837C16.6274 13.0837 16.1198 13.293 15.7447 13.666L14.1527 15.258L8.55572 9.66102C8.18053 9.28805 7.673 9.07871 7.14397 9.07871C6.61494 9.07871 6.1074 9.28805 5.73221 9.66102L2.13774 13.2555V2.07158H22.1626V17.2605Z" fill="#C8CADC"/>
</svg>
