<svg width="12" height="13" viewBox="0 0 12 13" fill="none" xmlns="http://www.w3.org/2000/svg">
<path d="M8.54166 12.5H3.45846C3.10102 12.5011 2.75604 12.3687 2.49104 12.1288C2.22604 11.889 2.06009 11.5588 2.02566 11.203L1.20246 2.94752C1.19567 2.88078 1.20297 2.81336 1.2239 2.74963C1.24482 2.68589 1.2789 2.62726 1.32392 2.57753C1.36895 2.5278 1.42391 2.48808 1.48526 2.46094C1.54661 2.43381 1.61298 2.41986 1.68006 2.42H10.3201C10.3871 2.42001 10.4534 2.43406 10.5147 2.46124C10.5759 2.48843 10.6309 2.52815 10.6758 2.57784C10.7208 2.62754 10.7549 2.68611 10.7759 2.74978C10.7969 2.81345 10.8043 2.88081 10.7977 2.94752L9.97446 11.2026C9.94004 11.5584 9.7741 11.8886 9.50911 12.1285C9.24413 12.3685 8.89915 12.5009 8.54166 12.5ZM2.20998 3.38L2.98086 11.1075C2.99244 11.2261 3.04778 11.3361 3.13609 11.4161C3.22439 11.496 3.33933 11.5402 3.45846 11.54H8.54166C8.66079 11.5402 8.77572 11.496 8.86403 11.4161C8.95234 11.3361 9.00768 11.2261 9.01926 11.1075L9.79014 3.38H2.20998Z" fill="black"/>
<path d="M11.52 3.38H0.48C0.352696 3.38 0.230606 3.32943 0.140589 3.23941C0.0505713 3.14939 0 3.0273 0 2.9C0 2.7727 0.0505713 2.65061 0.140589 2.56059C0.230606 2.47057 0.352696 2.42 0.48 2.42H11.52C11.6473 2.42 11.7694 2.47057 11.8594 2.56059C11.9494 2.65061 12 2.7727 12 2.9C12 3.0273 11.9494 3.14939 11.8594 3.23941C11.7694 3.32943 11.6473 3.38 11.52 3.38ZM6 10.58C5.8727 10.58 5.75061 10.5294 5.66059 10.4394C5.57057 10.3494 5.52 10.2273 5.52 10.1V4.82C5.52 4.6927 5.57057 4.57061 5.66059 4.48059C5.75061 4.39057 5.8727 4.34 6 4.34C6.1273 4.34 6.24939 4.39057 6.33941 4.48059C6.42943 4.57061 6.48 4.6927 6.48 4.82V10.1C6.48 10.2273 6.42943 10.3494 6.33941 10.4394C6.24939 10.5294 6.1273 10.58 6 10.58ZM4.31952 10.58C4.19977 10.5799 4.08439 10.535 3.99603 10.4542C3.90766 10.3734 3.8527 10.2625 3.84192 10.1432L3.36192 4.8632C3.35045 4.73648 3.38976 4.61039 3.47122 4.51264C3.55268 4.4149 3.66961 4.35349 3.79632 4.34192C3.92311 4.33071 4.04918 4.37017 4.14696 4.45167C4.24474 4.53316 4.30626 4.65006 4.31808 4.7768L4.79808 10.0568C4.80408 10.1232 4.79617 10.1902 4.77484 10.2534C4.75352 10.3167 4.71924 10.3747 4.67421 10.424C4.62918 10.4732 4.57438 10.5125 4.51331 10.5394C4.45224 10.5662 4.38624 10.5801 4.31952 10.58ZM7.68048 10.58C7.61376 10.5801 7.54776 10.5662 7.48669 10.5394C7.42562 10.5125 7.37082 10.4732 7.32579 10.424C7.28076 10.3747 7.24648 10.3167 7.22516 10.2534C7.20383 10.1902 7.19591 10.1232 7.20192 10.0568L7.68192 4.7768C7.7064 4.5128 7.9368 4.32272 8.20368 4.34192C8.33039 4.35349 8.44732 4.4149 8.52878 4.51264C8.61024 4.61039 8.64955 4.73648 8.63808 4.8632L8.15808 10.1432C8.1473 10.2625 8.09234 10.3734 8.00397 10.4542C7.91561 10.535 7.80023 10.5799 7.68048 10.58Z" fill="black"/>
<path d="M8.16 3.38H3.84C3.7127 3.38 3.59061 3.32943 3.50059 3.23941C3.41057 3.14939 3.36 3.0273 3.36 2.9V0.98C3.36 0.852696 3.41057 0.730606 3.50059 0.640589C3.59061 0.550571 3.7127 0.5 3.84 0.5H8.16C8.2873 0.5 8.40939 0.550571 8.49941 0.640589C8.58943 0.730606 8.64 0.852696 8.64 0.98V2.9C8.64 3.0273 8.58943 3.14939 8.49941 3.23941C8.40939 3.32943 8.2873 3.38 8.16 3.38ZM4.32 2.42H7.68V1.46H4.32V2.42Z" fill="black"/>
</svg>
