<svg width="13" height="16" viewBox="0 0 13 16" fill="none" xmlns="http://www.w3.org/2000/svg">
<path d="M8 1H2.4C2.0287 1 1.6726 1.1439 1.41005 1.40005C1.1475 1.6562 1 2.00361 1 2.36585V13.2927C1 13.6549 1.1475 14.0023 1.41005 14.2585C1.6726 14.5146 2.0287 14.6585 2.4 14.6585H10.8C11.1713 14.6585 11.5274 14.5146 11.7899 14.2585C12.0525 14.0023 12.2 13.6549 12.2 13.2927V5.09756L8 1Z" stroke="#7B7E8E" stroke-width="1.5" stroke-linecap="round" stroke-linejoin="round"/>
<path d="M8 1V5.09756H12.2" stroke="#7B7E8E" stroke-width="1.5" stroke-linecap="round" stroke-linejoin="round"/>
<path d="M9.40005 8.51221H3.80005" stroke="#7B7E8E" stroke-width="1.5" stroke-linecap="round" stroke-linejoin="round"/>
<path d="M9.40005 11.2441H3.80005" stroke="#7B7E8E" stroke-width="1.5" stroke-linecap="round" stroke-linejoin="round"/>
<path d="M5.20005 5.78027H4.50005H3.80005" stroke="#7B7E8E" stroke-width="1.5" stroke-linecap="round" stroke-linejoin="round"/>
</svg>
