<svg width="15" height="16" viewBox="0 0 15 16" fill="none" xmlns="http://www.w3.org/2000/svg">
<path fill-rule="evenodd" clip-rule="evenodd" d="M12.3088 8.9316C12.3101 9.01476 12.3748 12.3107 14.0751 13.0786C14.2688 13.1661 14.3752 13.3769 14.3304 13.5847C14.2856 13.7925 14.1018 13.9409 13.8893 13.9409H9.57866C9.49034 14.427 9.26048 14.8793 8.90887 15.2456C8.442 15.7321 7.8245 16 7.17025 16C6.51605 16 5.89856 15.7321 5.43163 15.2456C5.08007 14.8793 4.85021 14.427 4.76185 13.9409H0.451238C0.238662 13.9409 0.0548963 13.7925 0.010164 13.5847C-0.0346205 13.3769 0.0718376 13.1661 0.265538 13.0785C1.96591 12.3107 2.03064 9.01471 2.03185 8.93155V6.72035C2.03185 4.59218 3.33232 2.76218 5.18023 1.98299C5.18423 0.888945 6.07535 0 7.17033 0C8.26529 0 9.15643 0.888893 9.16041 1.98304C11.0084 2.76224 12.3088 4.59223 12.3088 6.7204V8.9316ZM8.21543 1.68882C8.0844 1.23517 7.66563 0.902357 7.17033 0.902357C6.67506 0.902357 6.25629 1.2352 6.12523 1.68882C6.4628 1.61878 6.81234 1.58189 7.17033 1.58189C7.52832 1.58189 7.87786 1.61881 8.21543 1.68882ZM5.68773 13.941C5.88065 14.6012 6.48167 15.0977 7.17033 15.0977C7.85904 15.0977 8.45996 14.6012 8.65287 13.941H5.68773ZM3.64987 6.63757C3.64987 4.69641 5.22915 3.11719 7.17033 3.11719C7.41951 3.11719 7.62153 3.31915 7.62155 3.56835C7.62155 3.81753 7.41954 4.01954 7.17036 4.01954C5.72672 4.01954 4.55226 5.19398 4.55226 6.63757C4.55226 6.88675 4.35024 7.08876 4.10106 7.08876C3.85189 7.08876 3.64987 6.88675 3.64987 6.63757Z" fill="#7B7E8E"/>
</svg>
