<svg width="25" height="25" viewBox="0 0 25 25" fill="none" xmlns="http://www.w3.org/2000/svg">
<g filter="url(#filter0_d_732_747)">
<path d="M20.2356 1.38193C19.9993 1.14552 19.7186 0.957981 19.4098 0.830033C19.1009 0.702085 18.7699 0.63623 18.4356 0.63623C18.1013 0.63623 17.7702 0.702085 17.4614 0.830033C17.1525 0.957981 16.8719 1.14552 16.6355 1.38193L14.835 3.18157L14.2352 2.58084C14.1563 2.50206 14.0627 2.43958 13.9598 2.39697C13.8568 2.35436 13.7464 2.33245 13.635 2.33248C13.5235 2.33252 13.4132 2.35451 13.3102 2.3972C13.2073 2.43989 13.1138 2.50243 13.035 2.58126C12.9562 2.6601 12.8937 2.75367 12.8511 2.85665C12.8085 2.95963 12.7866 3.06999 12.7866 3.18144C12.7867 3.29289 12.8087 3.40324 12.8513 3.50619C12.894 3.60913 12.9566 3.70267 13.0354 3.78144L17.8353 8.58048C17.9959 8.73133 18.2089 8.81376 18.4293 8.81034C18.6496 8.80692 18.86 8.71791 19.0159 8.56214C19.1717 8.40637 19.2609 8.19607 19.2645 7.97574C19.2681 7.7554 19.1858 7.54231 19.035 7.38157L18.4352 6.78169L20.2356 4.9812C20.7128 4.50386 20.9809 3.85653 20.9809 3.18157C20.9809 2.5066 20.7128 1.85927 20.2356 1.38193Z" fill="white"/>
<path fill-rule="evenodd" clip-rule="evenodd" d="M13.0617 4.95593L6.46217 11.5563C6.08976 11.9285 5.84189 12.407 5.75269 12.9259C5.66349 13.4449 5.73736 13.9787 5.96411 14.4539L4.63623 15.7817L5.83599 16.9823L7.16387 15.6536C7.63899 15.8805 8.17274 15.9545 8.69166 15.8654C9.21058 15.7764 9.68913 15.5287 10.0614 15.1564L16.661 8.5569L13.0617 4.95508V4.95593ZM14.2614 8.55605L13.0617 7.35629L7.66193 12.756C7.50737 12.9161 7.42185 13.1304 7.42378 13.3529C7.42571 13.5753 7.51495 13.7882 7.67226 13.9455C7.82958 14.1028 8.04239 14.192 8.26486 14.194C8.48733 14.1959 8.70166 14.1104 8.86168 13.9558L14.2614 8.55605Z" fill="white"/>
</g>
<defs>
<filter id="filter0_d_732_747" x="0.63623" y="0.63623" width="24.3447" height="24.3462" filterUnits="userSpaceOnUse" color-interpolation-filters="sRGB">
<feFlood flood-opacity="0" result="BackgroundImageFix"/>
<feColorMatrix in="SourceAlpha" type="matrix" values="0 0 0 0 0 0 0 0 0 0 0 0 0 0 0 0 0 0 127 0" result="hardAlpha"/>
<feOffset dy="4"/>
<feGaussianBlur stdDeviation="2"/>
<feComposite in2="hardAlpha" operator="out"/>
<feColorMatrix type="matrix" values="0 0 0 0 0 0 0 0 0 0 0 0 0 0 0 0 0 0 0.1 0"/>
<feBlend mode="normal" in2="BackgroundImageFix" result="effect1_dropShadow_732_747"/>
<feBlend mode="normal" in="SourceGraphic" in2="effect1_dropShadow_732_747" result="shape"/>
</filter>
</defs>
</svg>
