<svg width="15" height="15" viewBox="0 0 15 15" fill="none" xmlns="http://www.w3.org/2000/svg">
<path d="M9.66893 7.62755V12.9069C9.66893 13.2953 9.34392 13.6124 8.94579 13.6124H1.84441C1.44628 13.6124 1.12127 13.2953 1.12127 12.9069V5.97081C1.12127 5.58239 1.44628 5.26531 1.84441 5.26531H7.23951L8.32015 4.17139H0.723138C0.325006 4.17139 0 4.48847 0 4.87689V14.0008C0 14.3893 0.325006 14.7063 0.723138 14.7063H10.0752C10.4733 14.7063 10.7983 14.3893 10.7983 14.0008V6.56533L9.66893 7.62755Z" fill="#7B7E8E"/>
<path d="M10.5306 9.68796H12.3019C12.6675 9.68796 12.9682 9.39467 12.9682 9.03795V2.65674C12.9682 2.30002 12.6675 2.00673 12.3019 2.00673H5.76114C5.39551 2.00673 5.09488 2.30002 5.09488 2.65674V4.32933L4.06299 4.39274V1.65001C4.06299 1.2933 4.36362 1 4.72925 1H13.3338C13.6994 1 14 1.2933 14 1.65001V10.0447C14 10.4014 13.6994 10.6947 13.3338 10.6947H10.3356L10.5306 9.68796Z" fill="#7B7E8E" stroke="#7B7E8E" stroke-width="0.4" stroke-miterlimit="10"/>
<path d="M3.65946 11.6352L7.36453 11.5956C7.47016 11.5956 7.56766 11.556 7.64078 11.4767C7.71391 11.4053 7.75454 11.3023 7.75454 11.1992V10.8742C7.75454 10.7712 7.71391 10.6761 7.63266 10.6047C7.55953 10.5334 7.4539 10.4937 7.34828 10.4937L5.18699 10.5175L11.2483 4.5168C11.4027 4.36619 11.4027 4.12838 11.2402 3.97776L10.9965 3.74788C10.8421 3.59727 10.6715 3.67654 10.5171 3.83508L4.35822 9.76446L4.34197 7.64003C4.34197 7.53698 4.30135 7.44185 4.22822 7.37051C4.15509 7.29917 4.04947 7.25953 3.94384 7.25953H3.61071C3.50508 7.25953 3.40758 7.29917 3.33445 7.37844C3.26133 7.44978 3.2207 7.55283 3.2207 7.65588L3.26133 11.2706C3.26133 11.3736 3.30195 11.4688 3.38321 11.5401C3.45633 11.5956 3.55383 11.6352 3.65946 11.6352Z" fill="#7B7E8E" stroke="#7B7E8E" stroke-width="0.2" stroke-miterlimit="10"/>
<path d="M9.66893 7.62755V12.9069C9.66893 13.2953 9.34392 13.6124 8.94579 13.6124H1.84441C1.44628 13.6124 1.12127 13.2953 1.12127 12.9069V5.97081C1.12127 5.58239 1.44628 5.26531 1.84441 5.26531H7.23951L8.32015 4.17139H0.723138C0.325006 4.17139 0 4.48847 0 4.87689V14.0008C0 14.3893 0.325006 14.7063 0.723138 14.7063H10.0752C10.4733 14.7063 10.7983 14.3893 10.7983 14.0008V6.56533L9.66893 7.62755Z" fill="#7B7E8E"/>
<path d="M9.66893 7.62755V12.9069C9.66893 13.2953 9.34392 13.6124 8.94579 13.6124H1.84441C1.44628 13.6124 1.12127 13.2953 1.12127 12.9069V5.97081C1.12127 5.58239 1.44628 5.26531 1.84441 5.26531H7.23951L8.32015 4.17139H0.723138C0.325006 4.17139 0 4.48847 0 4.87689V14.0008C0 14.3893 0.325006 14.7063 0.723138 14.7063H10.0752C10.4733 14.7063 10.7983 14.3893 10.7983 14.0008V6.56533L9.66893 7.62755Z" stroke="#7B7E8E"/>
</svg>
