<svg width="12" height="16" viewBox="0 0 12 16" fill="none" xmlns="http://www.w3.org/2000/svg">
<path d="M11.2502 14.27H0.752954C0.554094 14.27 0.363379 14.349 0.222764 14.4897C0.0821484 14.6303 0.00315139 14.821 0.00315139 15.0198C0.00315139 15.2187 0.0821484 15.4094 0.222764 15.55C0.363379 15.6906 0.554094 15.7696 0.752954 15.7696H11.2502C11.4491 15.7696 11.6398 15.6906 11.7804 15.55C11.921 15.4094 12 15.2187 12 15.0198C12 14.821 11.921 14.6303 11.7804 14.4897C11.6398 14.349 11.4491 14.27 11.2502 14.27ZM0.752954 12.7704H0.820437L3.94712 12.4855C4.28962 12.4514 4.60997 12.3005 4.85438 12.0581L11.6026 5.30989C11.8645 5.03319 12.0061 4.66395 11.9962 4.28307C11.9864 3.90219 11.826 3.54074 11.5501 3.27793L9.49566 1.22347C9.22752 0.971606 8.87616 0.827092 8.50841 0.817414C8.14067 0.807736 7.78219 0.933571 7.50118 1.17098L0.752954 7.91921C0.510592 8.16362 0.359686 8.48396 0.325567 8.82647L0.00315139 11.9531C-0.00694924 12.063 0.00730104 12.1737 0.0448863 12.2774C0.0824716 12.381 0.142466 12.4752 0.220594 12.553C0.290656 12.6225 0.373746 12.6775 0.4651 12.7148C0.556454 12.7521 0.654275 12.771 0.752954 12.7704ZM8.45343 2.27319L10.5004 4.32015L9.00079 5.78227L6.99131 3.7728L8.45343 2.27319ZM1.78018 8.95394L6.00158 4.76254L8.02604 6.78701L3.82715 10.9859L1.57774 11.1958L1.78018 8.95394Z" fill="black"/>
</svg>
