<svg width="16" height="14" viewBox="0 0 16 14" fill="none" xmlns="http://www.w3.org/2000/svg">
<path d="M4.88889 7.04541H1.77778C1.34822 7.04541 1 7.38514 1 7.80422V12.3571C1 12.7761 1.34822 13.1159 1.77778 13.1159H4.88889C5.31844 13.1159 5.66667 12.7761 5.66667 12.3571V7.80422C5.66667 7.38514 5.31844 7.04541 4.88889 7.04541Z" stroke="#7B7E8E" stroke-width="1.5" stroke-linecap="round" stroke-linejoin="round"/>
<path d="M9.55564 4.00977H6.44453C6.01497 4.00977 5.66675 4.3495 5.66675 4.76857V12.3566C5.66675 12.7757 6.01497 13.1155 6.44453 13.1155H9.55564C9.98519 13.1155 10.3334 12.7757 10.3334 12.3566V4.76857C10.3334 4.3495 9.98519 4.00977 9.55564 4.00977Z" stroke="#7B7E8E" stroke-width="1.5" stroke-linecap="round" stroke-linejoin="round"/>
<path d="M14.2221 0.975586H11.111C10.6815 0.975586 10.3333 1.31532 10.3333 1.73439V12.3577C10.3333 12.7768 10.6815 13.1165 11.111 13.1165H14.2221C14.6517 13.1165 14.9999 12.7768 14.9999 12.3577V1.73439C14.9999 1.31532 14.6517 0.975586 14.2221 0.975586Z" stroke="#7B7E8E" stroke-width="1.5" stroke-linecap="round" stroke-linejoin="round"/>
<path d="M1.77759 13.1152H12.6665" stroke="#7B7E8E" stroke-width="1.5" stroke-linecap="round" stroke-linejoin="round"/>
</svg>
