<svg width="15" height="14" viewBox="0 0 15 14" fill="none" xmlns="http://www.w3.org/2000/svg">
<path d="M7.25 8.77441C8.28553 8.77441 9.125 7.93495 9.125 6.89941C9.125 5.86388 8.28553 5.02441 7.25 5.02441C6.21447 5.02441 5.375 5.86388 5.375 6.89941C5.375 7.93495 6.21447 8.77441 7.25 8.77441Z" stroke="#7B7E8E" stroke-width="1.5" stroke-miterlimit="10" stroke-linecap="round" stroke-linejoin="round"/>
<path d="M1 7.44931V6.34931C1 5.69931 1.53125 5.16181 2.1875 5.16181C3.31875 5.16181 3.78125 4.36181 3.2125 3.38056C2.8875 2.81806 3.08125 2.08681 3.65 1.76181L4.73125 1.14306C5.225 0.849313 5.8625 1.02431 6.15625 1.51806L6.225 1.63681C6.7875 2.61806 7.7125 2.61806 8.28125 1.63681L8.35 1.51806C8.64375 1.02431 9.28125 0.849313 9.775 1.14306L10.8563 1.76181C11.425 2.08681 11.6187 2.81806 11.2937 3.38056C10.725 4.36181 11.1875 5.16181 12.3188 5.16181C12.9688 5.16181 13.5063 5.69306 13.5063 6.34931V7.44931C13.5063 8.09931 12.975 8.63681 12.3188 8.63681C11.1875 8.63681 10.725 9.43681 11.2937 10.4181C11.6187 10.9868 11.425 11.7118 10.8563 12.0368L9.775 12.6556C9.28125 12.9493 8.64375 12.7743 8.35 12.2806L8.28125 12.1618C7.71875 11.1806 6.79375 11.1806 6.225 12.1618L6.15625 12.2806C5.8625 12.7743 5.225 12.9493 4.73125 12.6556L3.65 12.0368C3.08125 11.7118 2.8875 10.9806 3.2125 10.4181C3.78125 9.43681 3.31875 8.63681 2.1875 8.63681C1.53125 8.63681 1 8.09931 1 7.44931Z" stroke="#7B7E8E" stroke-width="1.5" stroke-miterlimit="10" stroke-linecap="round" stroke-linejoin="round"/>
</svg>
