<svg width="20" height="20" viewBox="0 0 20 20" fill="none" xmlns="http://www.w3.org/2000/svg">
<path d="M10.6634 19C9.92725 19.0031 9.21991 18.7141 8.69647 18.1965L1.80439 11.3044C1.52713 11.0217 1.3127 10.6836 1.17514 10.3123C1.03758 9.94099 0.979987 9.5448 1.00614 9.14968L1.30353 4.34975C1.35936 3.5601 1.6983 2.81713 2.25806 2.25737C2.81782 1.69761 3.56079 1.35867 4.35044 1.30284L9.15037 1.00545C9.54534 0.980938 9.94106 1.03929 10.3121 1.17676C10.6832 1.31423 11.0215 1.52778 11.3051 1.8037L18.1972 8.69578C18.7383 9.28277 19.025 10.0601 18.9946 10.8578C18.9643 11.6555 18.6195 12.4089 18.0355 12.9531L12.9381 18.0348C12.6414 18.3378 12.2877 18.5791 11.8972 18.7447C11.5068 18.9104 11.0875 18.9971 10.6634 19ZM9.33819 2.30456H9.2182L4.41305 2.59673C3.94183 2.63585 3.49975 2.8408 3.16541 3.17515C2.83106 3.5095 2.62611 3.95158 2.58699 4.42279L2.31047 9.21751C2.29176 9.43087 2.31938 9.64576 2.39141 9.84747C2.46345 10.0492 2.57822 10.2329 2.72785 10.3862L9.60428 17.273C9.75504 17.4188 9.93447 17.5317 10.1312 17.6044C10.3279 17.6772 10.5375 17.7082 10.7469 17.6956C11.2277 17.6663 11.6801 17.4578 12.0147 17.1113L17.1172 12.014C17.4544 11.7131 17.6598 11.2918 17.6891 10.8408C17.7184 10.3899 17.5692 9.94552 17.2737 9.60359L10.3973 2.72716C10.258 2.58955 10.0924 2.48125 9.91052 2.40867C9.72862 2.33609 9.53401 2.30069 9.33819 2.30456Z" fill="black"/>
<path d="M6.85997 9.07664C6.27189 9.07664 5.7079 8.84303 5.29206 8.42719C4.87622 8.01135 4.64261 7.44736 4.64261 6.85928C4.64265 6.42044 4.77291 5.99149 5.01688 5.62672C5.26086 5.26196 5.60758 4.97779 6.01316 4.8102C6.41873 4.64261 6.86491 4.59913 7.29521 4.68526C7.72551 4.7714 8.12057 4.98329 8.43038 5.29409C8.73939 5.60417 8.94971 5.99878 9.03482 6.42819C9.11993 6.8576 9.07603 7.3026 8.90865 7.7071C8.74127 8.1116 8.4579 8.45751 8.09425 8.70123C7.7306 8.94494 7.30295 9.07557 6.86519 9.07664H6.85997ZM6.85997 5.94625C6.67792 5.94466 6.49955 5.99752 6.34776 6.09806C6.19598 6.1986 6.07773 6.34222 6.00818 6.51048C5.93864 6.67873 5.92098 6.86393 5.95748 7.0423C5.99398 7.22066 6.08297 7.38404 6.21302 7.51144C6.38757 7.67733 6.61917 7.76983 6.85997 7.76983C7.10077 7.76983 7.33237 7.67733 7.50692 7.51144C7.67769 7.33943 7.77352 7.10688 7.77352 6.8645C7.77352 6.62211 7.67769 6.38956 7.50692 6.21755C7.42247 6.13167 7.32178 6.06346 7.21071 6.01688C7.09964 5.9703 6.98041 5.94629 6.85997 5.94625Z" fill="black"/>
<path d="M10.6634 19C9.92725 19.0031 9.21991 18.7141 8.69647 18.1965L1.80439 11.3044C1.52713 11.0217 1.3127 10.6836 1.17514 10.3123C1.03758 9.94099 0.979987 9.5448 1.00614 9.14968L1.30353 4.34975C1.35936 3.5601 1.6983 2.81713 2.25806 2.25737C2.81782 1.69761 3.56079 1.35867 4.35044 1.30284L9.15037 1.00545C9.54534 0.980938 9.94106 1.03929 10.3121 1.17676C10.6832 1.31423 11.0215 1.52778 11.3051 1.8037L18.1972 8.69578C18.7383 9.28277 19.025 10.0601 18.9946 10.8578C18.9643 11.6555 18.6195 12.4089 18.0355 12.9531L12.9381 18.0348C12.6414 18.3378 12.2877 18.5791 11.8972 18.7447C11.5068 18.9104 11.0875 18.9971 10.6634 19ZM9.33819 2.30456H9.2182L4.41305 2.59673C3.94183 2.63585 3.49975 2.8408 3.16541 3.17515C2.83106 3.5095 2.62611 3.95158 2.58699 4.42279L2.31047 9.21751C2.29176 9.43087 2.31938 9.64576 2.39141 9.84747C2.46345 10.0492 2.57822 10.2329 2.72785 10.3862L9.60428 17.273C9.75504 17.4188 9.93447 17.5317 10.1312 17.6044C10.3279 17.6772 10.5375 17.7082 10.7469 17.6956C11.2277 17.6663 11.6801 17.4578 12.0147 17.1113L17.1172 12.014C17.4544 11.7131 17.6598 11.2918 17.6891 10.8408C17.7184 10.3899 17.5692 9.94552 17.2737 9.60359L10.3973 2.72716C10.258 2.58955 10.0924 2.48125 9.91052 2.40867C9.72862 2.33609 9.53401 2.30069 9.33819 2.30456Z" stroke="black" stroke-width="0.5"/>
<path d="M6.85997 9.07664C6.27189 9.07664 5.7079 8.84303 5.29206 8.42719C4.87622 8.01135 4.64261 7.44736 4.64261 6.85928C4.64265 6.42044 4.77291 5.99149 5.01688 5.62672C5.26086 5.26196 5.60758 4.97779 6.01316 4.8102C6.41873 4.64261 6.86491 4.59913 7.29521 4.68526C7.72551 4.7714 8.12057 4.98329 8.43038 5.29409C8.73939 5.60417 8.94971 5.99878 9.03482 6.42819C9.11993 6.8576 9.07603 7.3026 8.90865 7.7071C8.74127 8.1116 8.4579 8.45751 8.09425 8.70123C7.7306 8.94494 7.30295 9.07557 6.86519 9.07664H6.85997ZM6.85997 5.94625C6.67792 5.94466 6.49955 5.99752 6.34776 6.09806C6.19598 6.1986 6.07773 6.34222 6.00818 6.51048C5.93864 6.67873 5.92098 6.86393 5.95748 7.0423C5.99398 7.22066 6.08297 7.38404 6.21302 7.51144C6.38757 7.67733 6.61917 7.76983 6.85997 7.76983C7.10077 7.76983 7.33237 7.67733 7.50692 7.51144C7.67769 7.33943 7.77352 7.10688 7.77352 6.8645C7.77352 6.62211 7.67769 6.38956 7.50692 6.21755C7.42247 6.13167 7.32178 6.06346 7.21071 6.01688C7.09964 5.9703 6.98041 5.94629 6.85997 5.94625Z" stroke="black" stroke-width="0.5"/>
</svg>
