<svg width="14" height="20" viewBox="0 0 14 20" fill="none" xmlns="http://www.w3.org/2000/svg">
<path fill-rule="evenodd" clip-rule="evenodd" d="M1.27287 1.0713C1.12443 1.14966 1 1.3571 1 1.52618C1 1.69483 1.11708 1.88673 1.27364 1.97473C1.40232 2.04705 1.45928 2.05356 1.96331 2.05356H2.5127L2.38943 2.29833C2.32165 2.43295 2.22398 2.68212 2.17243 2.85208C2.04368 3.27634 2.03482 3.98549 2.15243 4.45461C2.37765 5.35298 2.9526 6.30796 3.94541 7.43282C4.3323 7.87114 5.56081 9.10275 6.21384 9.70699L6.55826 10.0256L6.44237 10.1223C6.37867 10.1755 5.99417 10.5317 5.58795 10.9138C4.4049 12.0267 3.49102 13.054 2.96101 13.8668C2.00494 15.3331 1.81557 16.5469 2.36661 17.6767L2.49762 17.9452H1.95835C1.4873 17.9452 1.40155 17.9542 1.28035 18.016C1.12436 18.0956 1 18.2982 1 18.4726C1 18.6471 1.12436 18.8496 1.28035 18.9292C1.41779 18.9993 1.47531 19 7.32855 19C13.1818 19 13.2393 18.9993 13.3767 18.9292C13.5327 18.8496 13.6571 18.6471 13.6571 18.4726C13.6571 18.2982 13.5327 18.0956 13.3767 18.016C13.2555 17.9542 13.1698 17.9452 12.699 17.9452H12.16L12.2928 17.6712C12.9923 16.2288 12.4972 14.6403 10.7071 12.5836C10.2946 12.1095 9.2185 11.0314 8.55048 10.4228L8.10836 10.02L8.43042 9.72165C9.07125 9.12785 10.3324 7.8626 10.7117 7.43282C11.7045 6.30803 12.2794 5.35298 12.5047 4.45461C12.6223 3.98549 12.6134 3.27634 12.4847 2.85208C12.4331 2.68212 12.3354 2.43295 12.2677 2.29833L12.1444 2.05356H12.6912C13.1698 2.05356 13.2553 2.04473 13.3767 1.98278C13.5327 1.90318 13.6571 1.70063 13.6571 1.52618C13.6571 1.35172 13.5327 1.14917 13.3767 1.06957C13.2393 0.999466 13.1833 0.998798 7.32116 1.00035C1.49964 1.00189 1.40221 1.00302 1.27287 1.0713ZM10.9806 2.25213C11.1713 2.46611 11.3591 2.79892 11.4636 3.10831C11.5585 3.38916 11.5527 3.95251 11.4514 4.30701C11.3362 4.70975 11.1449 5.10676 11.0485 5.14347C10.9305 5.1883 10.2893 5.25299 9.96266 5.25299C9.30453 5.25299 8.47194 5.10131 7.80343 4.8596C6.66697 4.4487 6.1096 4.3081 5.30693 4.22984C4.81334 4.18171 4.12215 4.20509 3.60416 4.28743C3.18096 4.35472 3.20297 4.36808 3.14204 4.00672C3.04008 3.40242 3.24245 2.73911 3.67775 2.25073L3.85347 2.05356H7.32855H10.8036L10.9806 2.25213ZM5.69367 5.3398C6.16188 5.42273 6.58544 5.54168 7.12839 5.74268C8.09247 6.09961 8.84089 6.25874 9.7541 6.301L10.2801 6.32533L9.97627 6.67691C9.63235 7.07491 8.44909 8.26492 7.77682 8.88888L7.32855 9.30491L6.88028 8.88888C6.23529 8.2903 4.99577 7.0466 4.67573 6.67691C4.21181 6.14099 3.6665 5.38744 3.71066 5.34328C3.80523 5.24873 5.16598 5.24634 5.69367 5.3398ZM6.88101 12.381C6.95256 12.512 7.17051 12.6363 7.32855 12.6363C7.48659 12.6363 7.70453 12.512 7.77608 12.381C7.82481 12.2919 7.84218 12.154 7.85593 11.7467L7.87351 11.2264L8.61992 11.9512C10.3055 13.5881 11.1713 14.74 11.4471 15.7127C11.6027 16.2612 11.5379 16.9127 11.2864 17.3295L11.2067 17.4614L11.0768 17.2291C10.8482 16.8203 10.2897 16.189 9.84239 15.8338C9.35882 15.4499 8.67635 15.0726 8.16356 14.9059L7.85593 14.8058V14.458C7.85593 14.1788 7.84197 14.0828 7.78515 13.9714C7.70555 13.8154 7.503 13.6911 7.32855 13.6911C7.15409 13.6911 6.95154 13.8154 6.87194 13.9714C6.81513 14.0828 6.80117 14.1788 6.80117 14.458V14.8058L6.49353 14.9059C6.10176 15.0333 5.56858 15.304 5.1652 15.5802C4.49564 16.0388 3.81153 16.76 3.54183 17.2916L3.45425 17.4642L3.38375 17.3529C3.15589 16.993 3.06103 16.3966 3.15751 15.9304C3.36744 14.9155 4.08714 13.8996 5.81381 12.1807L6.78359 11.2154L6.80117 11.7413C6.81495 12.1538 6.83218 12.2917 6.88101 12.381ZM7.65749 15.8557C7.96358 15.9339 8.53607 16.2143 8.91838 16.4734C9.33726 16.7572 9.93468 17.3549 10.1269 17.6825L10.2707 17.9277L8.79962 17.9368C7.99055 17.9419 6.66405 17.9419 5.85189 17.9368L4.37523 17.9277L4.55446 17.6464C5.00991 16.9317 6.07247 16.1355 6.90664 15.8839C7.22325 15.7884 7.3719 15.7828 7.65749 15.8557Z" fill="black" stroke="black" stroke-width="0.5"/>
</svg>
