<svg width="19" height="18" viewBox="0 0 19 18" fill="none" xmlns="http://www.w3.org/2000/svg">
<path d="M18.2101 2.50916L15.9628 0.261857C15.6136 -0.0872858 15.048 -0.0872858 14.6989 0.261857C14.3497 0.610709 14.3497 1.1769 14.6989 1.52575L15.1906 2.01746L13.8729 3.3351C12.5594 2.40864 10.9619 1.85918 9.23597 1.85918C7.51 1.85918 5.91261 2.40857 4.59907 3.33495L3.28139 2.01742L3.77306 1.52575C4.1222 1.1769 4.1222 0.610715 3.77306 0.261863C3.42392 -0.0872799 2.85831 -0.0872799 2.50917 0.261863L0.261857 2.50916C-0.0872858 2.85801 -0.0872858 3.4242 0.261857 3.77305C0.436429 3.94763 0.665117 4.03491 0.893806 4.03491C1.12249 4.03491 1.35118 3.94763 1.52575 3.77306L2.01749 3.28131L3.26051 4.52419C1.96338 5.95672 1.16555 7.8494 1.16555 9.92959C1.16555 14.3797 4.78586 18 9.23597 18C13.6858 18 17.3064 14.3797 17.3064 9.92959C17.3064 7.84946 16.5085 5.9569 15.2115 4.52436L16.4545 3.28134L16.9462 3.77305C17.1207 3.94763 17.3494 4.03491 17.5781 4.03491C17.8068 4.03491 18.0355 3.94763 18.2101 3.77306C18.5592 3.42421 18.5592 2.85801 18.2101 2.50916ZM9.23597 16.2124C5.77161 16.2124 2.95316 13.3939 2.95316 9.92959C2.95316 6.46522 5.77161 3.64678 9.23597 3.64678C12.7 3.64678 15.5188 6.46523 15.5188 9.92959C15.5188 13.394 12.7 16.2124 9.23597 16.2124Z" fill="black"/>
<path d="M12.2153 9.03579H10.1298V6.02066C10.1298 5.52692 9.72971 5.12686 9.23597 5.12686C8.74222 5.12686 8.34216 5.52692 8.34216 6.02066V9.92959C8.34216 10.4233 8.74222 10.8234 9.23597 10.8234H12.2153C12.7088 10.8234 13.1091 10.4233 13.1091 9.92959C13.1091 9.43585 12.7088 9.03579 12.2153 9.03579Z" fill="black"/>
</svg>
