<svg width="21" height="14" viewBox="0 0 21 14" fill="none" xmlns="http://www.w3.org/2000/svg">
<path d="M10.5 13.1861C9.16139 13.1861 7.77903 12.8537 6.38793 12.2019C5.29867 11.69 4.20066 10.9814 3.12452 10.0933C1.30908 8.59286 0.189199 7.10552 0.141079 7.04427C-0.0470264 6.79492 -0.0470264 6.45371 0.141079 6.20436C0.189199 6.14312 1.30908 4.65577 3.12452 3.1553C4.20066 2.26727 5.29867 1.55859 6.38793 1.04677C7.77903 0.394965 9.16139 0.0625 10.5 0.0625C11.8386 0.0625 13.221 0.394965 14.6121 1.04677C15.7013 1.55859 16.7993 2.26727 17.8755 3.1553C19.6909 4.65577 20.8152 6.14312 20.8589 6.20436C21.047 6.45371 21.047 6.79492 20.8589 7.04427C20.8108 7.10552 19.6909 8.59286 17.8755 10.0933C16.7993 10.9814 15.7013 11.69 14.6121 12.2019C13.221 12.8537 11.8386 13.1861 10.5 13.1861ZM1.60218 6.62432C2.70019 7.92356 6.32668 11.7863 10.5 11.7863C14.6821 11.7863 18.2998 7.92356 19.3978 6.62432C18.2998 5.32508 14.6733 1.46235 10.5 1.46235C6.31794 1.46235 2.70019 5.32508 1.60218 6.62432Z" fill="black"/>
<path d="M10.5 9.77399C8.76331 9.77399 7.35033 8.36101 7.35033 6.62432C7.35033 4.88762 8.76331 3.47464 10.5 3.47464C12.2367 3.47464 13.6497 4.88762 13.6497 6.62432C13.6497 8.36101 12.2367 9.77399 10.5 9.77399ZM10.5 4.8745C9.53323 4.8745 8.75018 5.65754 8.75018 6.62432C8.75018 7.59109 9.53323 8.37414 10.5 8.37414C11.4668 8.37414 12.2498 7.59109 12.2498 6.62432C12.2498 5.65754 11.4668 4.8745 10.5 4.8745Z" fill="black"/>
</svg>
