<svg xmlns="http://www.w3.org/2000/svg" width="54.663" height="60.381" viewBox="0 0 54.663 60.381"><defs><style>.a{fill:#d91d57;}.b{fill:#fbd104;}.c{fill:#1ee2aa;}.d{fill:#24b8e0;}</style></defs><g transform="translate(8190 -10195.777)"><g transform="translate(-8190 10195.777)"><path class="a" d="M29.79,17.128c-.209-3.964-2.017-6.978-5.8-9.32a11.378,11.378,0,0,0-12.473,1c-5.077,4.474-4.706,8.9-3.779,12.38A11.24,11.24,0,0,0,18.917,29l10.9.023ZM18.777,25.219A7.485,7.485,0,0,1,11.335,20c-.626-2.3-.881-5.263,2.527-8.253a7.612,7.612,0,0,1,8.3-.672,7.344,7.344,0,0,1,3.872,6.213v7.929Z" transform="translate(-7.181 -6.392)"/></g><g transform="translate(-8157.979 10195.794)"><path class="b" d="M145.3,29.076l10.9-.023a11.24,11.24,0,0,0,11.175-7.813c.951-3.454,1.3-7.906-3.779-12.38a11.456,11.456,0,0,0-12.473-1c-3.779,2.342-5.587,5.332-5.8,9.32Zm3.779-3.779V17.368a7.344,7.344,0,0,1,3.872-6.213,7.568,7.568,0,0,1,8.3.672c3.385,2.991,3.153,5.935,2.527,8.253a7.523,7.523,0,0,1-7.442,5.216Z" transform="translate(-145.3 -6.463)"/></g><g transform="translate(-8158.002 10233.546)"><path class="c" d="M145.223,181.193c.209,3.964,2.017,6.978,5.8,9.32a11.467,11.467,0,0,0,12.473-1c5.1-4.474,4.729-8.926,3.779-12.38a11.239,11.239,0,0,0-11.175-7.813l-10.9-.023Zm11.035-8.114A7.485,7.485,0,0,1,163.7,178.3c.626,2.3.881,5.263-2.527,8.253a7.613,7.613,0,0,1-8.3.672A7.344,7.344,0,0,1,149,181.008v-7.929Z" transform="translate(-145.2 -169.3)"/></g><g transform="translate(-8189.993 10233.522)"><path class="d" d="M29.861,169.2l-10.9.023A11.24,11.24,0,0,0,7.79,177.036c-.951,3.478-1.321,7.929,3.779,12.4a11.456,11.456,0,0,0,12.473,1c3.779-2.342,5.587-5.332,5.8-9.32Zm-3.779,3.779v7.929a7.344,7.344,0,0,1-3.872,6.213,7.568,7.568,0,0,1-8.3-.672c-3.385-2.991-3.153-5.935-2.527-8.253a7.523,7.523,0,0,1,7.442-5.216Z" transform="translate(-7.214 -169.2)"/></g><g transform="translate(-8167.369 10233.546)"><rect class="d" width="4.683" height="3.756" transform="translate(0 0)"/></g><g transform="translate(-8162.686 10233.546)"><rect class="c" width="4.892" height="3.756" transform="translate(0 0)"/></g><g transform="translate(-8167.369 10214.628)"><rect class="a" width="4.683" height="3.756" transform="translate(0 0)"/><rect class="b" width="5.17" height="3.756" transform="translate(4.683 0)"/></g><g transform="translate(-8171.147 10225.987)"><rect class="d" width="3.802" height="7.558" transform="translate(0 0)"/></g><g transform="translate(-8157.979 10217.851)"><rect class="c" width="3.802" height="7.558" transform="translate(0 8.137)"/><rect class="b" width="3.802" height="8.137" transform="translate(0 0)"/></g><g transform="translate(-8171.147 10218.059)"><rect class="a" width="3.802" height="7.929" transform="translate(0 0)"/></g></g></svg>